<svg width="544" height="220" viewBox="0 0 544 220" fill="none" xmlns="http://www.w3.org/2000/svg">
<rect y="15" width="544" height="205" rx="60" fill="#02E5AC"/>
<rect x="8" width="528" height="205" rx="60" fill="#404040"/>
<path d="M265.5 145.25H259.25V139H253H246.75H240.5H234.25H228H221.75H215.5V145.25H209.25H203V139V132.75V126.5H209.25V120.25V114V107.75H215.5V101.5V95.25V89H221.75V82.75V76.5V70.25H228H234.25H240.5H246.75H253H259.25V76.5V82.75V89V95.25V101.5V107.75V114V120.25V126.5H265.5H271.75V132.75V139V145.25H265.5ZM234.25 126.5H240.5V120.25V114V107.75V101.5V95.25H234.25V101.5V107.75V114H228V120.25V126.5H234.25ZM321.75 139H315.5H309.25V132.75V126.5V120.25H303V126.5V132.75H296.75H290.5H284.25V126.5V120.25V114V107.75H290.5V101.5V95.25V89H296.75V82.75V76.5V70.25H303H309.25H315.5V76.5V82.75V89H321.75V95.25V101.5V107.75H328V114V120.25V126.5V132.75V139H321.75ZM309.25 107.75V101.5V95.25H303V101.5V107.75H309.25Z" fill="white"/>
</svg>
