<svg width="336" height="333" viewBox="0 0 336 333" fill="none" xmlns="http://www.w3.org/2000/svg">
<path d="M286.394 0H49.01C21.9423 0 0 21.9423 0 49.0101V283.443C0 310.511 21.9423 332.453 49.01 332.453H286.394C313.462 332.453 335.404 310.511 335.404 283.443V49.0101C335.404 21.9423 313.462 0 286.394 0Z" fill="white"/>
<path d="M281.545 17.875H53.8608C37.5692 17.875 24.3633 31.0809 24.3633 47.3726V275.055C24.3633 291.344 37.5692 304.552 53.8608 304.552H167.703H281.545C297.835 304.552 311.043 291.346 311.043 275.055V47.3704C311.041 31.0809 297.835 17.875 281.545 17.875Z" fill="#D83E21"/>
<path d="M282.469 18H54.5305C38.2207 18 25 27.2591 25 38.6817V198.318C25 209.741 38.2207 219 54.5305 219H282.469C298.777 219 312 209.741 312 198.318V38.6801C311.998 27.2591 298.777 18 282.469 18Z" fill="#F54E2F"/>
<path d="M221.211 119.502C221.211 127.959 216.458 136.536 206.924 143.386C197.406 150.224 183.751 154.764 168.211 154.764C152.671 154.764 139.016 150.224 129.498 143.386C119.964 136.536 115.211 127.959 115.211 119.502C115.211 111.045 119.964 102.467 129.498 95.6176C139.016 88.7796 152.671 84.2393 168.211 84.2393C183.751 84.2393 197.406 88.7796 206.924 95.6176C216.458 102.467 221.211 111.045 221.211 119.502Z" fill="#02E5AC" stroke="white" stroke-width="20"/>
<path d="M165.375 41L165.055 65.5716" stroke="white" stroke-width="20" stroke-linecap="round"/>
<path d="M251.445 62.9287L226.024 79.6796" stroke="white" stroke-width="20" stroke-linecap="round"/>
<path d="M165.375 173.427L165.053 197.998" stroke="white" stroke-width="20" stroke-linecap="round"/>
<path d="M110.633 159.048L85.2117 175.799" stroke="white" stroke-width="20" stroke-linecap="round"/>
<path d="M50 119.765H84.7452" stroke="white" stroke-width="20" stroke-linecap="round"/>
<path d="M89.2402 60.0957L113.16 77.9183" stroke="white" stroke-width="20" stroke-linecap="round"/>
<path d="M251.211 119.765H285.956" stroke="white" stroke-width="20" stroke-linecap="round"/>
<path d="M222.76 161.185L246.68 179.007" stroke="white" stroke-width="20" stroke-linecap="round"/>
</svg>
