<svg width="2235" height="1384" viewBox="0 0 2235 1384" fill="none" xmlns="http://www.w3.org/2000/svg">
<rect x="1285.61" y="183.064" width="193.298" height="586.011" fill="#5A5959"/>
<rect x="1460.56" y="302.957" width="176.17" height="535.851" fill="#5A5959"/>
<rect x="1118" y="372.691" width="177.394" height="537.074" fill="#5A5959"/>
<rect x="1569.44" y="372.691" width="236.117" height="130.904" fill="#5A5959"/>
<rect x="1755.4" y="70.5098" width="193.298" height="698.564" fill="#5A5959"/>
<rect x="1307.84" y="208.861" width="29.2939" height="29.2939" fill="#404040"/>
<rect x="1307.84" y="255.986" width="29.2939" height="29.2939" fill="#404040"/>
<rect x="1307.84" y="303.111" width="29.2939" height="29.2939" fill="#404040"/>
<rect x="1307.84" y="350.236" width="29.2939" height="29.2939" fill="#404040"/>
<rect x="1307.84" y="397.361" width="29.2939" height="29.2939" fill="#404040"/>
<rect x="1307.84" y="444.486" width="29.2939" height="29.2939" fill="#404040"/>
<rect x="1307.84" y="491.611" width="29.2939" height="29.2939" fill="#404040"/>
<rect x="1307.84" y="538.736" width="29.2939" height="29.2939" fill="#404040"/>
<rect x="1307.84" y="585.861" width="29.2939" height="29.2939" fill="#404040"/>
<rect x="1307.84" y="632.986" width="29.2939" height="29.2939" fill="#404040"/>
<rect x="1307.84" y="680.111" width="29.2939" height="29.2939" fill="#404040"/>
<rect x="1307.84" y="727.236" width="29.2939" height="29.2939" fill="#404040"/>
<rect x="1347.33" y="208.861" width="29.2939" height="29.2939" fill="#404040"/>
<rect x="1347.33" y="255.986" width="29.2939" height="29.2939" fill="#404040"/>
<rect x="1347.33" y="303.111" width="29.2939" height="29.2939" fill="#404040"/>
<rect x="1347.33" y="350.236" width="29.2939" height="29.2939" fill="#404040"/>
<rect x="1347.33" y="397.361" width="29.2939" height="29.2939" fill="#404040"/>
<rect x="1347.33" y="444.486" width="29.2939" height="29.2939" fill="#404040"/>
<rect x="1347.33" y="491.611" width="29.2939" height="29.2939" fill="#404040"/>
<rect x="1347.33" y="538.736" width="29.2939" height="29.2939" fill="#404040"/>
<rect x="1347.33" y="585.861" width="29.2939" height="29.2939" fill="#404040"/>
<rect x="1347.33" y="632.986" width="29.2939" height="29.2939" fill="#404040"/>
<rect x="1347.33" y="680.111" width="29.2939" height="29.2939" fill="#404040"/>
<rect x="1347.33" y="727.236" width="29.2939" height="29.2939" fill="#404040"/>
<rect x="1386.81" y="208.861" width="29.2939" height="29.2939" fill="#404040"/>
<rect x="1386.81" y="255.986" width="29.2939" height="29.2939" fill="#404040"/>
<rect x="1386.81" y="303.111" width="29.2939" height="29.2939" fill="#404040"/>
<rect x="1386.81" y="350.236" width="29.2939" height="29.2939" fill="#404040"/>
<rect x="1386.81" y="397.361" width="29.2939" height="29.2939" fill="#404040"/>
<rect x="1386.81" y="444.486" width="29.2939" height="29.2939" fill="#404040"/>
<rect x="1386.81" y="491.611" width="29.2939" height="29.2939" fill="#404040"/>
<rect x="1386.81" y="538.736" width="29.2939" height="29.2939" fill="#404040"/>
<rect x="1386.81" y="585.861" width="29.2939" height="29.2939" fill="#404040"/>
<rect x="1386.81" y="632.986" width="29.2939" height="29.2939" fill="#404040"/>
<rect x="1386.81" y="680.111" width="29.2939" height="29.2939" fill="#404040"/>
<rect x="1386.81" y="727.236" width="29.2939" height="29.2939" fill="#404040"/>
<rect x="1426.29" y="208.861" width="29.2939" height="29.2939" fill="#404040"/>
<rect x="1426.29" y="255.986" width="29.2939" height="29.2939" fill="#404040"/>
<rect x="1426.29" y="303.111" width="29.2939" height="29.2939" fill="#404040"/>
<rect x="1426.29" y="350.236" width="29.2939" height="29.2939" fill="#404040"/>
<rect x="1426.29" y="397.361" width="29.2939" height="29.2939" fill="#404040"/>
<rect x="1426.29" y="444.486" width="29.2939" height="29.2939" fill="#404040"/>
<rect x="1426.29" y="491.611" width="29.2939" height="29.2939" fill="#404040"/>
<rect x="1426.29" y="538.736" width="29.2939" height="29.2939" fill="#404040"/>
<rect x="1426.29" y="585.861" width="29.2939" height="29.2939" fill="#404040"/>
<rect x="1426.29" y="632.986" width="29.2939" height="29.2939" fill="#404040"/>
<rect x="1426.29" y="680.111" width="29.2939" height="29.2939" fill="#404040"/>
<rect x="1426.29" y="727.236" width="29.2939" height="29.2939" fill="#404040"/>
<rect x="1667.31" y="398.383" width="28.1383" height="81.9681" fill="#404040"/>
<rect x="1702.79" y="398.383" width="30.5851" height="81.9681" fill="#404040"/>
<rect x="1739.49" y="398.383" width="15.9043" height="81.9681" fill="#404040"/>
<rect x="1639.18" y="398.383" width="18.3511" height="81.9681" fill="#404040"/>
<rect x="1763.81" y="98.0547" width="81.5136" height="38.8463" fill="#404040"/>
<rect x="1859.4" y="98.0547" width="81.5136" height="38.8463" fill="#404040"/>
<rect x="1763.81" y="152.184" width="81.5136" height="38.8463" fill="#404040"/>
<rect x="1763.81" y="206.314" width="81.5136" height="38.8463" fill="#404040"/>
<rect x="1763.81" y="260.445" width="81.5136" height="38.8463" fill="#404040"/>
<rect x="1763.81" y="314.574" width="81.5136" height="38.8463" fill="#404040"/>
<rect x="1763.81" y="368.705" width="81.5136" height="38.8463" fill="#404040"/>
<rect x="1763.81" y="422.836" width="81.5136" height="38.8463" fill="#404040"/>
<rect x="1763.81" y="476.967" width="81.5136" height="38.8463" fill="#404040"/>
<rect x="1763.81" y="531.094" width="81.5136" height="38.8463" fill="#404040"/>
<rect x="1763.81" y="585.227" width="81.5136" height="38.8463" fill="#404040"/>
<rect x="1763.81" y="639.355" width="81.5136" height="38.8463" fill="#404040"/>
<rect x="1763.81" y="693.486" width="81.5136" height="38.8463" fill="#404040"/>
<rect x="1763.81" y="747.617" width="81.5136" height="38.8463" fill="#404040"/>
<rect x="1859.33" y="152.184" width="81.5136" height="38.8463" fill="#404040"/>
<rect x="1859.33" y="206.314" width="81.5136" height="38.8463" fill="#404040"/>
<rect x="1859.33" y="260.445" width="81.5136" height="38.8463" fill="#404040"/>
<rect x="1859.33" y="314.574" width="81.5136" height="38.8463" fill="#404040"/>
<rect x="1859.33" y="368.705" width="81.5136" height="38.8463" fill="#404040"/>
<rect x="1859.33" y="422.836" width="81.5136" height="38.8463" fill="#404040"/>
<rect x="1859.33" y="476.967" width="81.5136" height="38.8463" fill="#404040"/>
<rect x="1859.33" y="531.094" width="81.5136" height="38.8463" fill="#404040"/>
<rect x="1859.33" y="585.227" width="81.5136" height="38.8463" fill="#404040"/>
<rect x="1859.33" y="639.355" width="81.5136" height="38.8463" fill="#404040"/>
<rect x="1859.33" y="693.486" width="81.5136" height="38.8463" fill="#404040"/>
<rect x="1859.33" y="747.617" width="81.5136" height="38.8463" fill="#404040"/>
<rect x="1140.02" y="405.723" width="40.3723" height="376.809" fill="#404040"/>
<rect x="1186.52" y="405.723" width="41.5957" height="376.809" fill="#404040"/>
<rect x="1234.23" y="405.723" width="40.3723" height="376.809" fill="#404040"/>
<rect x="1475.33" y="322.217" width="46.4882" height="46.4882" fill="#404040"/>
<rect x="1475.33" y="378.258" width="46.4882" height="46.4882" fill="#404040"/>
<rect x="1475.33" y="434.299" width="46.4882" height="46.4882" fill="#404040"/>
<rect x="1475.33" y="490.34" width="46.4882" height="46.4882" fill="#404040"/>
<rect x="1475.33" y="546.379" width="46.4882" height="46.4882" fill="#404040"/>
<rect x="1475.33" y="602.42" width="46.4882" height="46.4882" fill="#404040"/>
<rect x="1475.33" y="658.461" width="46.4882" height="46.4882" fill="#404040"/>
<rect x="1475.33" y="714.502" width="46.4882" height="46.4882" fill="#404040"/>
<rect x="1530.09" y="322.217" width="46.4882" height="46.4882" fill="#404040"/>
<rect x="1530.09" y="378.258" width="46.4882" height="46.4882" fill="#404040"/>
<rect x="1530.09" y="434.299" width="46.4882" height="46.4882" fill="#404040"/>
<rect x="1530.09" y="490.34" width="46.4882" height="46.4882" fill="#404040"/>
<rect x="1530.09" y="546.379" width="46.4882" height="46.4882" fill="#404040"/>
<rect x="1530.09" y="602.42" width="46.4882" height="46.4882" fill="#404040"/>
<rect x="1530.09" y="658.461" width="46.4882" height="46.4882" fill="#404040"/>
<rect x="1530.09" y="714.502" width="46.4882" height="46.4882" fill="#404040"/>
<rect x="1583.59" y="322.217" width="46.4882" height="46.4882" fill="#404040"/>
<rect x="1583.59" y="378.258" width="46.4882" height="46.4882" fill="#404040"/>
<rect x="1583.59" y="434.299" width="46.4882" height="46.4882" fill="#404040"/>
<rect x="1583.59" y="490.34" width="46.4882" height="46.4882" fill="#404040"/>
<rect x="1583.59" y="546.379" width="46.4882" height="46.4882" fill="#404040"/>
<rect x="1583.59" y="602.42" width="46.4882" height="46.4882" fill="#404040"/>
<rect x="1583.59" y="658.461" width="46.4882" height="46.4882" fill="#404040"/>
<rect x="1583.59" y="714.502" width="46.4882" height="46.4882" fill="#404040"/>
<line x1="1852.21" y1="72.957" x2="1852.21" y2="26.4677" stroke="#5A5959" stroke-width="7"/>
<path d="M1827.58 2L1845.68 2.24572C1842.55 6.95772 1842.35 11.3977 1845.68 15.5043C1850.91 19.409 1855.42 19.1984 1859.32 15.5043C1863.13 11.8891 1862.7 7.3789 1859.32 2.24572H1877.43V16.3642C1881.88 13.7142 1886.69 13.4247 1890.68 16.3642C1894.66 20.8305 1894.6 25.1652 1890.68 29.3683C1886.37 32.8694 1881.79 32.3867 1877.04 29.3683V42.3723H1859.13C1863.03 37.5287 1863.13 33.115 1859.13 29.1138C1854.45 26.6218 1849.95 26.4902 1845.56 29.1138C1841.51 32.2902 1842.01 36.8618 1845.56 42.3723H1827.58V2.23693V2Z" fill="#5A5959" stroke="#5A5959" stroke-width="2" stroke-miterlimit="10"/>
<path d="M2234.05 1201.82L2181.46 570.001L0 751.578L52.5902 1383.39L2234.05 1201.82Z" fill="#F54E2F"/>
</svg>
