<svg width="2189" height="1227" viewBox="0 0 2189 1227" fill="none" xmlns="http://www.w3.org/2000/svg">
<rect x="1262.61" y="183.064" width="193.298" height="586.011" fill="#5A5959"/>
<rect x="1437.55" y="302.957" width="176.17" height="535.851" fill="#5A5959"/>
<rect x="1095" y="372.691" width="177.394" height="537.074" fill="#5A5959"/>
<rect x="1546.44" y="372.691" width="236.117" height="130.904" fill="#5A5959"/>
<rect x="1732.39" y="70.5098" width="193.298" height="698.564" fill="#5A5959"/>
<rect x="1284.84" y="208.861" width="29.2939" height="29.2939" fill="#404040"/>
<rect x="1284.84" y="255.986" width="29.2939" height="29.2939" fill="#404040"/>
<rect x="1284.84" y="303.111" width="29.2939" height="29.2939" fill="#404040"/>
<rect x="1284.84" y="350.236" width="29.2939" height="29.2939" fill="#404040"/>
<rect x="1284.84" y="397.361" width="29.2939" height="29.2939" fill="#404040"/>
<rect x="1284.84" y="444.486" width="29.2939" height="29.2939" fill="#404040"/>
<rect x="1284.84" y="491.611" width="29.2939" height="29.2939" fill="#404040"/>
<rect x="1284.84" y="538.736" width="29.2939" height="29.2939" fill="#404040"/>
<rect x="1284.84" y="585.861" width="29.2939" height="29.2939" fill="#404040"/>
<rect x="1284.84" y="632.986" width="29.2939" height="29.2939" fill="#404040"/>
<rect x="1284.84" y="680.111" width="29.2939" height="29.2939" fill="#404040"/>
<rect x="1284.84" y="727.236" width="29.2939" height="29.2939" fill="#404040"/>
<rect x="1324.32" y="208.861" width="29.2939" height="29.2939" fill="#404040"/>
<rect x="1324.32" y="255.986" width="29.2939" height="29.2939" fill="#404040"/>
<rect x="1324.32" y="303.111" width="29.2939" height="29.2939" fill="#404040"/>
<rect x="1324.32" y="350.236" width="29.2939" height="29.2939" fill="#404040"/>
<rect x="1324.32" y="397.361" width="29.2939" height="29.2939" fill="#404040"/>
<rect x="1324.32" y="444.486" width="29.2939" height="29.2939" fill="#404040"/>
<rect x="1324.32" y="491.611" width="29.2939" height="29.2939" fill="#404040"/>
<rect x="1324.32" y="538.736" width="29.2939" height="29.2939" fill="#404040"/>
<rect x="1324.32" y="585.861" width="29.2939" height="29.2939" fill="#404040"/>
<rect x="1324.32" y="632.986" width="29.2939" height="29.2939" fill="#404040"/>
<rect x="1324.32" y="680.111" width="29.2939" height="29.2939" fill="#404040"/>
<rect x="1324.32" y="727.236" width="29.2939" height="29.2939" fill="#404040"/>
<rect x="1363.81" y="208.861" width="29.2939" height="29.2939" fill="#404040"/>
<rect x="1363.81" y="255.986" width="29.2939" height="29.2939" fill="#404040"/>
<rect x="1363.81" y="303.111" width="29.2939" height="29.2939" fill="#404040"/>
<rect x="1363.81" y="350.236" width="29.2939" height="29.2939" fill="#404040"/>
<rect x="1363.81" y="397.361" width="29.2939" height="29.2939" fill="#404040"/>
<rect x="1363.81" y="444.486" width="29.2939" height="29.2939" fill="#404040"/>
<rect x="1363.81" y="491.611" width="29.2939" height="29.2939" fill="#404040"/>
<rect x="1363.81" y="538.736" width="29.2939" height="29.2939" fill="#404040"/>
<rect x="1363.81" y="585.861" width="29.2939" height="29.2939" fill="#404040"/>
<rect x="1363.81" y="632.986" width="29.2939" height="29.2939" fill="#404040"/>
<rect x="1363.81" y="680.111" width="29.2939" height="29.2939" fill="#404040"/>
<rect x="1363.81" y="727.236" width="29.2939" height="29.2939" fill="#404040"/>
<rect x="1403.29" y="208.861" width="29.2939" height="29.2939" fill="#404040"/>
<rect x="1403.29" y="255.986" width="29.2939" height="29.2939" fill="#404040"/>
<rect x="1403.29" y="303.111" width="29.2939" height="29.2939" fill="#404040"/>
<rect x="1403.29" y="350.236" width="29.2939" height="29.2939" fill="#404040"/>
<rect x="1403.29" y="397.361" width="29.2939" height="29.2939" fill="#404040"/>
<rect x="1403.29" y="444.486" width="29.2939" height="29.2939" fill="#404040"/>
<rect x="1403.29" y="491.611" width="29.2939" height="29.2939" fill="#404040"/>
<rect x="1403.29" y="538.736" width="29.2939" height="29.2939" fill="#404040"/>
<rect x="1403.29" y="585.861" width="29.2939" height="29.2939" fill="#404040"/>
<rect x="1403.29" y="632.986" width="29.2939" height="29.2939" fill="#404040"/>
<rect x="1403.29" y="680.111" width="29.2939" height="29.2939" fill="#404040"/>
<rect x="1403.29" y="727.236" width="29.2939" height="29.2939" fill="#404040"/>
<rect x="1644.31" y="398.383" width="28.1383" height="81.9681" fill="#404040"/>
<rect x="1679.79" y="398.383" width="30.5851" height="81.9681" fill="#404040"/>
<rect x="1716.49" y="398.383" width="15.9043" height="81.9681" fill="#404040"/>
<rect x="1616.17" y="398.383" width="18.3511" height="81.9681" fill="#404040"/>
<rect x="1740.8" y="98.0547" width="81.5136" height="38.8463" fill="#404040"/>
<rect x="1836.39" y="98.0547" width="81.5136" height="38.8463" fill="#404040"/>
<rect x="1740.8" y="152.184" width="81.5136" height="38.8463" fill="#404040"/>
<rect x="1740.8" y="206.314" width="81.5136" height="38.8463" fill="#404040"/>
<rect x="1740.8" y="260.445" width="81.5136" height="38.8463" fill="#404040"/>
<rect x="1740.8" y="314.574" width="81.5136" height="38.8463" fill="#404040"/>
<rect x="1740.8" y="368.705" width="81.5136" height="38.8463" fill="#404040"/>
<rect x="1740.8" y="422.836" width="81.5136" height="38.8463" fill="#404040"/>
<rect x="1740.8" y="476.967" width="81.5136" height="38.8463" fill="#404040"/>
<rect x="1740.8" y="531.094" width="81.5136" height="38.8463" fill="#404040"/>
<rect x="1740.8" y="585.227" width="81.5136" height="38.8463" fill="#404040"/>
<rect x="1740.8" y="639.355" width="81.5136" height="38.8463" fill="#404040"/>
<rect x="1740.8" y="693.486" width="81.5136" height="38.8463" fill="#404040"/>
<rect x="1740.8" y="747.617" width="81.5136" height="38.8463" fill="#404040"/>
<rect x="1836.33" y="152.184" width="81.5136" height="38.8463" fill="#404040"/>
<rect x="1836.33" y="206.314" width="81.5136" height="38.8463" fill="#404040"/>
<rect x="1836.33" y="260.445" width="81.5136" height="38.8463" fill="#404040"/>
<rect x="1836.33" y="314.574" width="81.5136" height="38.8463" fill="#404040"/>
<rect x="1836.33" y="368.705" width="81.5136" height="38.8463" fill="#404040"/>
<rect x="1836.33" y="422.836" width="81.5136" height="38.8463" fill="#404040"/>
<rect x="1836.33" y="476.967" width="81.5136" height="38.8463" fill="#404040"/>
<rect x="1836.33" y="531.094" width="81.5136" height="38.8463" fill="#404040"/>
<rect x="1836.33" y="585.227" width="81.5136" height="38.8463" fill="#404040"/>
<rect x="1836.33" y="639.355" width="81.5136" height="38.8463" fill="#404040"/>
<rect x="1836.33" y="693.486" width="81.5136" height="38.8463" fill="#404040"/>
<rect x="1836.33" y="747.617" width="81.5136" height="38.8463" fill="#404040"/>
<rect x="1117.02" y="405.723" width="40.3723" height="376.809" fill="#404040"/>
<rect x="1163.51" y="405.723" width="41.5957" height="376.809" fill="#404040"/>
<rect x="1211.22" y="405.723" width="40.3723" height="376.809" fill="#404040"/>
<rect x="1452.32" y="322.217" width="46.4882" height="46.4882" fill="#404040"/>
<rect x="1452.32" y="378.258" width="46.4882" height="46.4882" fill="#404040"/>
<rect x="1452.32" y="434.299" width="46.4882" height="46.4882" fill="#404040"/>
<rect x="1452.32" y="490.34" width="46.4882" height="46.4882" fill="#404040"/>
<rect x="1452.32" y="546.379" width="46.4882" height="46.4882" fill="#404040"/>
<rect x="1452.32" y="602.42" width="46.4882" height="46.4882" fill="#404040"/>
<rect x="1452.32" y="658.461" width="46.4882" height="46.4882" fill="#404040"/>
<rect x="1452.32" y="714.502" width="46.4882" height="46.4882" fill="#404040"/>
<rect x="1507.09" y="322.217" width="46.4882" height="46.4882" fill="#404040"/>
<rect x="1507.09" y="378.258" width="46.4882" height="46.4882" fill="#404040"/>
<rect x="1507.09" y="434.299" width="46.4882" height="46.4882" fill="#404040"/>
<rect x="1507.09" y="490.34" width="46.4882" height="46.4882" fill="#404040"/>
<rect x="1507.09" y="546.379" width="46.4882" height="46.4882" fill="#404040"/>
<rect x="1507.09" y="602.42" width="46.4882" height="46.4882" fill="#404040"/>
<rect x="1507.09" y="658.461" width="46.4882" height="46.4882" fill="#404040"/>
<rect x="1507.09" y="714.502" width="46.4882" height="46.4882" fill="#404040"/>
<rect x="1560.58" y="322.217" width="46.4882" height="46.4882" fill="#404040"/>
<rect x="1560.58" y="378.258" width="46.4882" height="46.4882" fill="#404040"/>
<rect x="1560.58" y="434.299" width="46.4882" height="46.4882" fill="#404040"/>
<rect x="1560.58" y="490.34" width="46.4882" height="46.4882" fill="#404040"/>
<rect x="1560.58" y="546.379" width="46.4882" height="46.4882" fill="#404040"/>
<rect x="1560.58" y="602.42" width="46.4882" height="46.4882" fill="#404040"/>
<rect x="1560.58" y="658.461" width="46.4882" height="46.4882" fill="#404040"/>
<rect x="1560.58" y="714.502" width="46.4882" height="46.4882" fill="#404040"/>
<line x1="1829.21" y1="72.957" x2="1829.21" y2="26.4677" stroke="#5A5959" stroke-width="7"/>
<path d="M1804.57 2L1822.68 2.24572C1819.54 6.95772 1819.35 11.3977 1822.68 15.5043C1827.91 19.409 1832.42 19.1984 1836.32 15.5043C1840.12 11.8891 1839.7 7.3789 1836.32 2.24572H1854.42V16.3642C1858.88 13.7142 1863.69 13.4247 1867.68 16.3642C1871.65 20.8305 1871.6 25.1652 1867.68 29.3683C1863.36 32.8694 1858.79 32.3867 1854.04 29.3683V42.3723H1836.13C1840.02 37.5287 1840.12 33.115 1836.13 29.1138C1831.44 26.6218 1826.95 26.4902 1822.55 29.1138C1818.51 32.2902 1819 36.8618 1822.55 42.3723H1804.57V2.23693V2Z" fill="#5A5959" stroke="#5A5959" stroke-width="2" stroke-miterlimit="10"/>
<path d="M2189 1227V593H0V1227H2189Z" fill="#F54E2F"/>
</svg>
