<svg width="371" height="371" viewBox="0 0 371 371" fill="none" xmlns="http://www.w3.org/2000/svg">
<g clip-path="url(#clip0_458_3056)">
<rect width="371" height="371" fill="white"/>
<circle cx="186.296" cy="230.905" r="323.325" fill="#02E5AC" stroke="white" stroke-width="11.9411"/>
<ellipse cx="43.6306" cy="209.487" rx="78.865" ry="77.1064" fill="#01AF83"/>
<ellipse cx="335.01" cy="204.763" rx="78.865" ry="77.7828" fill="#01AF83"/>
<path d="M123.433 126.344L-1.92477 131.394L-1.92477 178.424L9.06719 228.118L28.6034 257.419L52.6657 275.956L66.9489 279.776L85.1152 275.956L108.361 250.714L123.255 215.114L127.978 168.979L123.433 126.344Z" fill="white"/>
<path d="M372.195 124.262C369.111 120.731 296.795 126.85 244.361 128.997L249.069 186.259L265.307 239.449L280.927 258.339L301.269 275.049L319.07 275.049L334.657 269.643L354.306 249.257L367.385 219.106L376.043 167.423C376.377 150.062 375.278 127.794 372.195 124.262Z" fill="white"/>
<path d="M68.2837 279.26C104.27 277.666 131.024 221.768 128.039 154.41C125.055 87.0514 93.4626 33.7392 57.476 35.3336C21.4893 36.9281 -5.26419 92.8255 -2.27971 160.184C0.704771 227.542 32.2971 280.855 68.2837 279.26Z" stroke="white" stroke-width="11.9411" stroke-miterlimit="10"/>
<path d="M315.928 275.268C351.915 273.673 378.668 217.776 375.684 150.418C372.699 83.0592 341.107 29.747 305.121 31.3415C269.134 32.9359 242.38 88.8333 245.365 156.192C248.349 223.55 279.942 276.862 315.928 275.268Z" stroke="white" stroke-width="11.9411" stroke-miterlimit="10"/>
<path d="M65.4337 214.796C79.9136 214.09 90.0417 176.732 88.2127 131.291L36.0352 133.836C37.8641 179.277 51.0786 215.497 65.4337 214.796Z" fill="black" stroke="black" stroke-width="8.20954" stroke-miterlimit="10"/>
<path d="M311.344 210.472C325.824 209.766 335.952 172.408 334.123 126.967L281.945 129.512C283.774 174.953 296.989 211.172 311.344 210.472Z" fill="black" stroke="black" stroke-width="8.20954" stroke-miterlimit="10"/>
<path d="M-1.88672 132.43L124.188 126.844" stroke="white" stroke-width="5.22425" stroke-miterlimit="10"/>
<path d="M244.152 128.504L372.995 122.898" stroke="white" stroke-width="5.22425" stroke-miterlimit="10"/>
</g>
<defs>
<clipPath id="clip0_458_3056">
<rect width="371" height="371" fill="white"/>
</clipPath>
</defs>
</svg>
