<svg width="907" height="945" viewBox="0 0 907 945" fill="none" xmlns="http://www.w3.org/2000/svg">
<circle cx="453.242" cy="491.242" r="445.242" fill="#02E5AC" stroke="white" stroke-width="16"/>
<ellipse cx="260.248" cy="458.583" rx="108.509" ry="109.47" fill="#01AF83"/>
<ellipse cx="657.787" cy="452.821" rx="108.509" ry="109.47" fill="#01AF83"/>
<path d="M366.748 347.316L194.206 354.267L194.206 418.999L209.336 487.398L236.225 527.727L269.345 553.241L289.004 558.499L314.008 553.241L346.004 518.499L366.504 469.499L373.004 405.999L366.748 347.316Z" fill="white"/>
<path d="M707.301 344.438L531.645 350.669L539.653 429.79L562.004 503L583.504 529L611.503 552L636.004 552L657.458 544.559L684.503 516.5L702.504 475L714.42 403.863L707.301 344.438Z" fill="white"/>
<path d="M290.831 557.8C340.363 555.605 377.186 478.668 373.079 385.956C368.971 293.244 325.487 219.865 275.955 222.059C226.423 224.254 189.6 301.191 193.707 393.903C197.815 486.615 241.299 559.994 290.831 557.8Z" stroke="white" stroke-width="16" stroke-miterlimit="10"/>
<path d="M631.694 552.304C681.226 550.109 718.05 473.172 713.942 380.46C709.834 287.748 666.35 214.369 616.818 216.563C567.286 218.758 530.463 295.695 534.571 388.407C538.679 481.119 582.162 554.498 631.694 552.304Z" stroke="white" stroke-width="16" stroke-miterlimit="10"/>
<path d="M286.902 469.239C306.832 468.356 320.772 421.647 318.255 364.832L246.438 368.014C248.955 424.829 267.143 470.114 286.902 469.239Z" fill="black" stroke="black" stroke-width="11" stroke-miterlimit="10"/>
<path d="M625.382 463.823C645.312 462.94 659.252 416.231 656.735 359.416L584.918 362.598C587.435 419.413 605.624 464.698 625.382 463.823Z" fill="black" stroke="black" stroke-width="11" stroke-miterlimit="10"/>
<path d="M194.258 355.699L367.787 348.011" stroke="white" stroke-width="7" stroke-miterlimit="10"/>
<path d="M532.902 350.293L706.432 342.604" stroke="white" stroke-width="7" stroke-miterlimit="10"/>
</svg>
