<svg width="544" height="220" viewBox="0 0 544 220" fill="none" xmlns="http://www.w3.org/2000/svg">
<rect y="15" width="544" height="205" rx="60" fill="#404040"/>
<rect x="8" width="528" height="205" rx="60" fill="#02E5AC"/>
<path d="M240.5 139H234.25H228V132.75V126.5V120.25V114V107.75H221.75V114V120.25V126.5V132.75H215.5H209.25H203V126.5V120.25V114V107.75V101.5V95.25V89V82.75V76.5V70.25H209.25H215.5H221.75V76.5V82.75V89V95.25H228V89V82.75V76.5V70.25H234.25H240.5H246.75V76.5V82.75V89V95.25V101.5V107.75V114V120.25V126.5V132.75V139H240.5ZM296.75 139H290.5H284.25H278H271.75H265.5H259.25V132.75V126.5V120.25V114V107.75V101.5V95.25V89V82.75V76.5V70.25H265.5H271.75H278H284.25H290.5H296.75V76.5V82.75H290.5H284.25H278V89V95.25H284.25H290.5H296.75V101.5V107.75H290.5H284.25H278V114V120.25V126.5H284.25H290.5H296.75H303V132.75V139H296.75ZM340.5 139H334.25H328V132.75V126.5V120.25V114V107.75V101.5V95.25V89V82.75H321.75H315.5V76.5V70.25H321.75H328H334.25H340.5H346.75H353H359.25V76.5V82.75H353H346.75V89V95.25V101.5V107.75V114V120.25V126.5V132.75V139H340.5Z" fill="#404040"/>
</svg>
