<svg width="336" height="333" viewBox="0 0 336 333" fill="none" xmlns="http://www.w3.org/2000/svg">
<path d="M286.394 0H49.01C21.9423 0 0 21.9423 0 49.0101V283.443C0 310.511 21.9423 332.453 49.01 332.453H286.394C313.462 332.453 335.404 310.511 335.404 283.443V49.0101C335.404 21.9423 313.462 0 286.394 0Z" fill="white"/>
<path d="M281.545 17.875H53.8608C37.5692 17.875 24.3633 31.0809 24.3633 47.3726V275.055C24.3633 291.344 37.5692 304.552 53.8608 304.552H167.703H281.545C297.835 304.552 311.043 291.346 311.043 275.055V47.3704C311.041 31.0809 297.835 17.875 281.545 17.875Z" fill="#F54E2F"/>
<path d="M282.469 89H54.5305C38.2207 89 25 98.9501 25 111.225V282.775C25 295.05 38.2207 305 54.5305 305H282.469C298.777 305 312 295.05 312 282.775V111.223C311.998 98.9501 298.777 89 282.469 89Z" fill="#D83E21"/>
<path d="M240 197C240 235.101 204.692 268 158.5 268C118.368 268 86.4515 243.167 78.7679 211.664C98.6836 217.957 115.779 220.792 130.115 220.416C148.105 219.945 162.58 214.346 172.048 203.277C181.43 192.31 184.422 177.685 183.163 162.186C182.28 151.315 179.287 139.557 174.51 127.355C212.606 133.915 240 163.439 240 197Z" fill="#02E5AC"/>
<path d="M240 197C240 235.101 204.692 268 158.5 268C118.368 268 86.4515 243.167 78.7679 211.664C98.6836 217.957 115.779 220.792 130.115 220.416C148.105 219.945 162.58 214.346 172.048 203.277C181.43 192.31 184.422 177.685 183.163 162.186C182.28 151.315 179.287 139.557 174.51 127.355C212.606 133.915 240 163.439 240 197Z" fill="black" fill-opacity="0.05"/>
<path d="M240 197C240 235.101 204.692 268 158.5 268C118.368 268 86.4515 243.167 78.7679 211.664C98.6836 217.957 115.779 220.792 130.115 220.416C148.105 219.945 162.58 214.346 172.048 203.277C181.43 192.31 184.422 177.685 183.163 162.186C182.28 151.315 179.287 139.557 174.51 127.355C212.606 133.915 240 163.439 240 197Z" stroke="white" stroke-width="20"/>
<path d="M240 197C240 235.101 204.692 268 158.5 268C118.368 268 86.4515 243.167 78.7679 211.664C98.6836 217.957 115.779 220.792 130.115 220.416C148.105 219.945 162.58 214.346 172.048 203.277C181.43 192.31 184.422 177.685 183.163 162.186C182.28 151.315 179.287 139.557 174.51 127.355C212.606 133.915 240 163.439 240 197Z" stroke="black" stroke-opacity="0.05" stroke-width="20"/>
</svg>
