<svg width="2083" height="1788" viewBox="0 0 2083 1788" fill="none" xmlns="http://www.w3.org/2000/svg">
<path d="M813.859 161.742L1781.64 672.402C1792.28 678.02 1796.37 691.221 1790.75 701.869L1497.46 1257.7L491.102 726.684L784.392 170.853C790.011 160.206 803.212 156.124 813.859 161.742Z" fill="#02E5AC" stroke="white" stroke-width="6" stroke-miterlimit="10"/>
<path d="M1495.91 1256.88L489.477 725.828C489.477 725.828 489.468 725.823 489.458 725.818L53.5598 860.594C53.5598 860.594 53.5395 860.632 53.5587 860.642L1628.48 1691.67C1628.48 1691.67 1628.52 1691.65 1628.52 1691.64L1495.91 1256.9C1495.91 1256.9 1495.9 1256.89 1495.9 1256.89L1495.91 1256.88Z" fill="#F54E2F" stroke="white" stroke-width="6" stroke-miterlimit="10"/>
<path d="M1628.32 1691.59L53.2812 860.497L5.0025 951.993L1580.04 1783.08L1628.32 1691.59Z" fill="#02E5AC" stroke="white" stroke-width="6" stroke-miterlimit="10"/>
<path d="M776.758 185.329L1783.11 716.345" stroke="white" stroke-width="6" stroke-miterlimit="10"/>
<path d="M519.836 672.223L1526.19 1203.24" stroke="white" stroke-width="6" stroke-miterlimit="10"/>
<path d="M1275.15 436.257C1279.21 438.399 1284.24 436.845 1286.38 432.786C1288.52 428.727 1286.97 423.701 1282.91 421.559C1278.85 419.418 1273.82 420.972 1271.68 425.031C1269.54 429.089 1271.09 434.116 1275.15 436.257Z" fill="#F6FFF4" stroke="white" stroke-width="4" stroke-miterlimit="10"/>
<path d="M485.669 760.721L344.652 804.33" stroke="white" stroke-width="4" stroke-miterlimit="10"/>
<path d="M368.342 987.752L147.776 871.368L219.321 849.247" stroke="white" stroke-width="4" stroke-miterlimit="10"/>
<path d="M1350.86 489.01L1780.85 715.897L1724.88 821.959L1631.99 962.081L1693.04 797.385L1622.15 885.204L1634.75 840.9L1611.27 853.556L1506.02 1026.89L1586.38 824.21L1560.04 826.526L1510.33 897.884L1492.87 879.044L1423.21 926.226L1459.99 856.526L1424.01 898.976L1402.11 887.417L1319.28 1019.9L1448.6 742.677L1429.96 757.884L1395.73 628.414L1378.07 638.957L1360.7 653.976L1346.99 666.039L1351.6 649.174L1365.13 623.528L1340.43 630.327L1350.86 489.01Z" fill="white"/>
<mask id="mask0_227_1355" style="mask-type:alpha" maskUnits="userSpaceOnUse" x="1319" y="488" width="462" height="539">
<path d="M1350.88 488.161L1780.86 715.048L1724.9 821.11L1632.01 961.232L1693.06 796.536L1622.16 884.355L1634.77 840.052L1611.29 852.707L1506.04 1026.04L1586.39 823.361L1560.06 825.677L1510.34 897.036L1492.89 878.196L1423.22 925.377L1460 855.677L1424.03 898.128L1402.12 886.569L1319.29 1019.05L1448.62 741.828L1429.97 757.035L1395.75 627.565L1378.08 638.108L1360.72 653.127L1347 665.19L1351.62 648.326L1365.15 622.679L1340.45 629.479L1350.88 488.161Z" fill="white"/>
</mask>
<g mask="url(#mask0_227_1355)">
<rect x="1529" y="566.652" width="3.80716" height="408.889" transform="rotate(27.8189 1529 566.652)" fill="#404040"/>
<rect x="1479.17" y="540.357" width="3.80716" height="408.889" transform="rotate(27.8189 1479.17 540.357)" fill="#404040"/>
<rect x="1429.33" y="514.061" width="3.80716" height="408.889" transform="rotate(27.8189 1429.33 514.061)" fill="#404040"/>
<rect x="1379.5" y="487.767" width="3.80716" height="408.889" transform="rotate(27.8189 1379.5 487.767)" fill="#404040"/>
<rect x="1329.66" y="461.468" width="3.80716" height="408.889" transform="rotate(27.8189 1329.66 461.468)" fill="#404040"/>
<rect x="1537.75" y="571.271" width="1.52286" height="408.889" transform="rotate(27.8189 1537.75 571.271)" fill="#404040"/>
<rect x="1487.92" y="544.978" width="1.52286" height="408.889" transform="rotate(27.8189 1487.92 544.978)" fill="#404040"/>
<rect x="1438.09" y="518.683" width="1.52286" height="408.889" transform="rotate(27.8189 1438.09 518.683)" fill="#404040"/>
<rect x="1388.25" y="492.386" width="1.52286" height="408.889" transform="rotate(27.8189 1388.25 492.386)" fill="#404040"/>
<rect x="1338.42" y="466.09" width="1.52286" height="408.889" transform="rotate(27.8189 1338.42 466.09)" fill="#404040"/>
<rect x="1541.8" y="573.405" width="4.56859" height="408.889" transform="rotate(27.8189 1541.8 573.405)" fill="#404040"/>
<rect x="1491.96" y="547.109" width="4.56859" height="408.889" transform="rotate(27.8189 1491.96 547.109)" fill="#404040"/>
<rect x="1442.12" y="520.813" width="4.56859" height="408.889" transform="rotate(27.8189 1442.12 520.813)" fill="#404040"/>
<rect x="1392.3" y="494.517" width="4.56859" height="408.889" transform="rotate(27.8189 1392.3 494.517)" fill="#404040"/>
<rect x="1342.46" y="468.222" width="4.56859" height="408.889" transform="rotate(27.8189 1342.46 468.222)" fill="#404040"/>
<rect x="1551.23" y="578.38" width="4.56859" height="497.976" transform="rotate(27.8189 1551.23 578.38)" fill="#404040"/>
<rect x="1501.39" y="552.083" width="4.56859" height="408.889" transform="rotate(27.8189 1501.39 552.083)" fill="#404040"/>
<rect x="1451.55" y="525.788" width="4.56859" height="408.889" transform="rotate(27.8189 1451.55 525.788)" fill="#404040"/>
<rect x="1401.72" y="499.491" width="4.56859" height="408.889" transform="rotate(27.8189 1401.72 499.491)" fill="#404040"/>
<rect x="1351.89" y="473.196" width="4.56859" height="408.889" transform="rotate(27.8189 1351.89 473.196)" fill="#404040"/>
<rect x="1557.96" y="581.932" width="1.52286" height="408.889" transform="rotate(27.8189 1557.96 581.932)" fill="#404040"/>
<rect x="1508.12" y="555.635" width="1.52286" height="408.889" transform="rotate(27.8189 1508.12 555.635)" fill="#404040"/>
<rect x="1458.29" y="529.341" width="1.52286" height="408.889" transform="rotate(27.8189 1458.29 529.341)" fill="#404040"/>
<rect x="1408.46" y="503.046" width="1.52286" height="408.889" transform="rotate(27.8189 1408.46 503.046)" fill="#404040"/>
<rect x="1358.62" y="476.75" width="1.52286" height="408.889" transform="rotate(27.8189 1358.62 476.75)" fill="#404040"/>
<rect x="1564.7" y="585.484" width="1.52286" height="408.889" transform="rotate(27.8189 1564.7 585.484)" fill="#404040"/>
<rect x="1514.86" y="559.188" width="1.52286" height="408.889" transform="rotate(27.8189 1514.86 559.188)" fill="#404040"/>
<rect x="1465.02" y="532.895" width="1.52286" height="408.889" transform="rotate(27.8189 1465.02 532.895)" fill="#404040"/>
<rect x="1415.19" y="506.6" width="1.52286" height="408.889" transform="rotate(27.8189 1415.19 506.6)" fill="#404040"/>
<rect x="1365.36" y="480.306" width="1.52286" height="408.889" transform="rotate(27.8189 1365.36 480.306)" fill="#404040"/>
<rect x="1571.43" y="589.039" width="1.52286" height="408.889" transform="rotate(27.8189 1571.43 589.039)" fill="#404040"/>
<rect x="1521.59" y="562.744" width="1.52286" height="408.889" transform="rotate(27.8189 1521.59 562.744)" fill="#404040"/>
<rect x="1471.76" y="536.447" width="1.52286" height="408.889" transform="rotate(27.8189 1471.76 536.447)" fill="#404040"/>
<rect x="1421.92" y="510.152" width="1.52286" height="408.889" transform="rotate(27.8189 1421.92 510.152)" fill="#404040"/>
<rect x="1372.09" y="483.857" width="1.52286" height="408.889" transform="rotate(27.8189 1372.09 483.857)" fill="#404040"/>
<rect x="1578.16" y="592.593" width="4.56859" height="408.889" transform="rotate(27.8189 1578.16 592.593)" fill="#404040"/>
<rect x="1528.33" y="566.295" width="4.56859" height="408.889" transform="rotate(27.8189 1528.33 566.295)" fill="#404040"/>
<rect x="1478.49" y="540.002" width="4.56859" height="408.889" transform="rotate(27.8189 1478.49 540.002)" fill="#404040"/>
<rect x="1428.66" y="513.706" width="4.56859" height="408.889" transform="rotate(27.8189 1428.66 513.706)" fill="#404040"/>
<rect x="1378.83" y="487.41" width="4.56859" height="408.889" transform="rotate(27.8189 1378.83 487.41)" fill="#404040"/>
<rect x="1584.89" y="596.146" width="1.52286" height="408.889" transform="rotate(27.8189 1584.89 596.146)" fill="#404040"/>
<rect x="1591.63" y="599.699" width="1.52286" height="408.889" transform="rotate(27.8189 1591.63 599.699)" fill="#404040"/>
<rect x="1598.37" y="603.252" width="1.52286" height="408.889" transform="rotate(27.8189 1598.37 603.252)" fill="#404040"/>
<rect x="1605.1" y="606.807" width="4.56859" height="408.889" transform="rotate(27.8189 1605.1 606.807)" fill="#404040"/>
<rect x="1611.83" y="610.358" width="1.52286" height="408.889" transform="rotate(27.8189 1611.83 610.358)" fill="#404040"/>
<rect x="1618.57" y="613.913" width="1.52286" height="408.889" transform="rotate(27.8189 1618.57 613.913)" fill="#404040"/>
<rect x="1625.3" y="617.465" width="5.33002" height="408.889" transform="rotate(27.8189 1625.3 617.465)" fill="#404040"/>
<rect x="1632.03" y="621.02" width="1.52286" height="408.889" transform="rotate(27.8189 1632.03 621.02)" fill="#404040"/>
<rect x="1638.77" y="624.573" width="1.52286" height="408.889" transform="rotate(27.8189 1638.77 624.573)" fill="#404040"/>
<rect x="1645.5" y="628.124" width="4.56859" height="408.889" transform="rotate(27.8189 1645.5 628.124)" fill="#404040"/>
<rect x="1652.23" y="631.679" width="1.52286" height="408.889" transform="rotate(27.8189 1652.23 631.679)" fill="#404040"/>
<rect x="1658.97" y="635.234" width="1.52286" height="408.889" transform="rotate(27.8189 1658.97 635.234)" fill="#404040"/>
<rect x="1665.71" y="638.786" width="1.52286" height="408.889" transform="rotate(27.8189 1665.71 638.786)" fill="#404040"/>
<rect x="1672.44" y="642.341" width="1.52286" height="408.889" transform="rotate(27.8189 1672.44 642.341)" fill="#404040"/>
<rect x="1679.17" y="645.894" width="1.52286" height="408.889" transform="rotate(27.8189 1679.17 645.894)" fill="#404040"/>
<rect x="1682.54" y="647.671" width="5.33002" height="408.889" transform="rotate(27.8189 1682.54 647.671)" fill="#404040"/>
<rect x="1692.64" y="653.001" width="1.52286" height="408.889" transform="rotate(27.8189 1692.64 653.001)" fill="#404040"/>
<rect x="1699.38" y="656.553" width="1.52286" height="408.889" transform="rotate(27.8189 1699.38 656.553)" fill="#404040"/>
<rect x="1706.11" y="660.108" width="5.33002" height="408.889" transform="rotate(27.8189 1706.11 660.108)" fill="#404040"/>
<rect x="1712.85" y="663.662" width="1.52286" height="408.889" transform="rotate(27.8189 1712.85 663.662)" fill="#404040"/>
<rect x="1719.58" y="667.213" width="1.52286" height="408.889" transform="rotate(27.8189 1719.58 667.213)" fill="#404040"/>
<rect x="1726.32" y="670.768" width="1.52286" height="408.889" transform="rotate(27.8189 1726.32 670.768)" fill="#404040"/>
<rect x="1733.05" y="674.321" width="3.80716" height="408.889" transform="rotate(27.8189 1733.05 674.321)" fill="#404040"/>
<rect x="1739.79" y="677.874" width="1.52286" height="408.889" transform="rotate(27.8189 1739.79 677.874)" fill="#404040"/>
<rect x="1746.52" y="681.429" width="1.52286" height="408.889" transform="rotate(27.8189 1746.52 681.429)" fill="#404040"/>
<rect x="1753.25" y="684.98" width="3.80716" height="408.889" transform="rotate(27.8189 1753.25 684.98)" fill="#404040"/>
<rect x="1759.98" y="688.535" width="1.52286" height="408.889" transform="rotate(27.8189 1759.98 688.535)" fill="#404040"/>
<rect x="1766.72" y="692.09" width="1.52286" height="408.889" transform="rotate(27.8189 1766.72 692.09)" fill="#404040"/>
<rect x="1773.45" y="695.641" width="1.52286" height="408.889" transform="rotate(27.8189 1773.45 695.641)" fill="#404040"/>
<rect x="1780.19" y="699.196" width="4.56859" height="408.889" transform="rotate(27.8189 1780.19 699.196)" fill="#404040"/>
<rect x="1786.92" y="702.748" width="1.52286" height="408.889" transform="rotate(27.8189 1786.92 702.748)" fill="#404040"/>
</g>
<path d="M1587.67 835.651L1586.38 824.213L1506.7 1025.81L1587.67 835.651Z" fill="#F54E2F"/>
<path d="M1368.11 634.996L1364.95 623.857L1351.44 649.448L1346.99 666.04L1368.11 634.996Z" fill="#F54E2F"/>
<path d="M1408.34 641.157L1395.67 628.447L1429.97 757.606L1408.34 641.157Z" fill="#F54E2F"/>
<path d="M1453.39 761.355L1448.52 742.855L1319.85 1019.33L1453.39 761.355Z" fill="#F54E2F"/>
<path d="M1349.82 490.18L1361.33 509.165C1356.92 526.417 1342.66 613.104 1340.53 628.351C1340.4 629.808 1340.32 630.61 1340.27 630.641C1340.22 630.677 1340.32 629.867 1340.53 628.351C1341.97 611.314 1348.41 504.634 1349.82 490.18Z" fill="#F54E2F"/>
<path d="M1460.83 864.721L1459.99 856.528L1423.21 926.228L1460.83 864.721Z" fill="#F54E2F"/>
<path d="M1696.55 821.011L1693.24 797.087L1632.11 960.261L1696.55 821.011Z" fill="#F54E2F"/>
<path d="M1637.06 850.526L1634.71 841.108L1622.17 885.283L1637.06 850.526Z" fill="#F54E2F"/>
</svg>
