<svg width="2083" height="1788" viewBox="0 0 2083 1788" fill="none" xmlns="http://www.w3.org/2000/svg">
<path d="M813.628 162.347L1781.4 673.026C1792.04 678.644 1796.13 691.845 1790.51 702.492L1497.21 1258.32L490.86 727.283L784.162 171.457C789.78 160.81 802.981 156.729 813.628 162.347Z" fill="#02E5AC" stroke="white" stroke-width="6" stroke-miterlimit="10"/>
<path d="M1495.66 1257.5L489.236 726.429C489.236 726.429 489.226 726.423 489.217 726.418L53.316 861.185C53.316 861.185 53.2957 861.224 53.315 861.234L1628.22 1692.29C1628.22 1692.29 1628.26 1692.27 1628.26 1692.26L1495.66 1257.52C1495.66 1257.52 1495.65 1257.51 1495.64 1257.51L1495.66 1257.5Z" fill="#F54E2F" stroke="white" stroke-width="6" stroke-miterlimit="10"/>
<path d="M1628.06 1692.21L53.0352 861.089L4.75464 952.584L1579.78 1783.7L1628.06 1692.21Z" fill="#02E5AC" stroke="white" stroke-width="6" stroke-miterlimit="10"/>
<path d="M776.523 185.935L1782.87 716.969" stroke="white" stroke-width="6" stroke-miterlimit="10"/>
<path d="M519.596 672.822L1525.94 1203.86" stroke="white" stroke-width="6" stroke-miterlimit="10"/>
<path d="M1274.91 436.872C1278.97 439.013 1284 437.459 1286.14 433.401C1288.28 429.342 1286.73 424.316 1282.67 422.174C1278.61 420.032 1273.58 421.586 1271.44 425.645C1269.3 429.703 1270.85 434.73 1274.91 436.872Z" fill="#F6FFF4" stroke="white" stroke-width="4" stroke-miterlimit="10"/>
<path d="M485.426 761.32L344.408 804.927" stroke="white" stroke-width="4" stroke-miterlimit="10"/>
<path d="M368.093 988.348L147.529 871.96L219.075 849.841" stroke="white" stroke-width="4" stroke-miterlimit="10"/>
<rect x="778.059" y="189.937" width="1131" height="545" transform="rotate(27.82 778.059 189.937)" fill="black"/>
</svg>
