<svg width="2083" height="1788" viewBox="0 0 2083 1788" fill="none" xmlns="http://www.w3.org/2000/svg">
<path d="M813.624 162.347L1781.39 673.026C1792.04 678.644 1796.12 691.845 1790.5 702.492L1497.2 1258.32L490.856 727.283L784.158 171.457C789.776 160.81 802.977 156.729 813.624 162.347Z" fill="#02E5AC" stroke="white" stroke-width="6" stroke-miterlimit="10"/>
<path d="M1495.65 1257.5L489.232 726.429C489.232 726.429 489.222 726.423 489.213 726.418L53.3121 861.185C53.3121 861.185 53.2918 861.224 53.3111 861.234L1628.21 1692.29C1628.21 1692.29 1628.26 1692.27 1628.25 1692.26L1495.66 1257.52C1495.66 1257.52 1495.65 1257.51 1495.64 1257.51L1495.65 1257.5Z" fill="#F54E2F" stroke="white" stroke-width="6" stroke-miterlimit="10"/>
<path d="M1628.06 1692.21L53.0352 861.089L4.75464 952.584L1579.78 1783.7L1628.06 1692.21Z" fill="#02E5AC" stroke="white" stroke-width="6" stroke-miterlimit="10"/>
<path d="M776.523 185.935L1782.87 716.969" stroke="white" stroke-width="6" stroke-miterlimit="10"/>
<path d="M519.594 672.822L1525.94 1203.86" stroke="white" stroke-width="6" stroke-miterlimit="10"/>
<path d="M1274.91 436.872C1278.97 439.013 1284 437.459 1286.14 433.401C1288.28 429.342 1286.73 424.316 1282.67 422.174C1278.61 420.032 1273.58 421.586 1271.44 425.645C1269.3 429.703 1270.85 434.73 1274.91 436.872Z" fill="#F6FFF4" stroke="white" stroke-width="4" stroke-miterlimit="10"/>
<path d="M485.422 761.32L344.404 804.927" stroke="white" stroke-width="4" stroke-miterlimit="10"/>
<path d="M368.093 988.348L147.529 871.96L219.075 849.841" stroke="white" stroke-width="4" stroke-miterlimit="10"/>
<rect x="949.027" y="410.186" width="80" height="80" transform="rotate(27.82 949.027 410.186)" fill="#F54E2F"/>
<rect x="1423.96" y="660.801" width="80" height="80" transform="rotate(27.82 1423.96 660.801)" fill="#F54E2F"/>
<rect x="907.492" y="488.898" width="80" height="80" transform="rotate(27.82 907.492 488.898)" fill="#F54E2F"/>
<rect x="1382.43" y="739.515" width="80" height="80" transform="rotate(27.82 1382.43 739.515)" fill="#F54E2F"/>
<rect x="1083.8" y="731.183" width="80" height="80" transform="rotate(27.82 1083.8 731.183)" fill="#F54E2F"/>
<rect x="1160.74" y="771.785" width="80" height="80" transform="rotate(27.82 1160.74 771.785)" fill="#F54E2F"/>
<rect x="1006.85" y="690.58" width="80" height="80" transform="rotate(27.82 1006.85 690.58)" fill="#F54E2F"/>
<rect x="897.707" y="711.003" width="80" height="80" transform="rotate(27.82 897.707 711.003)" fill="#F54E2F"/>
<rect x="1205.48" y="873.413" width="80" height="80" transform="rotate(27.82 1205.48 873.413)" fill="#F54E2F"/>
</svg>
