<svg width="2189" height="777" viewBox="0 0 2189 777" fill="none" xmlns="http://www.w3.org/2000/svg">
<g clip-path="url(#clip0_304_1756)">
<ellipse cx="825.069" cy="439.297" rx="214" ry="193.743" transform="rotate(10.123 825.069 439.297)" fill="#F54E2F"/>
<ellipse cx="924.299" cy="293.15" rx="120" ry="100.613" transform="rotate(10.123 924.299 293.15)" fill="#F54E2F"/>
<ellipse cx="16.8151" cy="403.139" rx="120" ry="100.613" transform="rotate(10.123 16.8151 403.139)" fill="#F54E2F"/>
<ellipse cx="14.8151" cy="319.139" rx="120" ry="100.613" transform="rotate(10.123 14.8151 319.139)" fill="#F54E2F"/>
<ellipse cx="152.815" cy="400.139" rx="120" ry="100.613" transform="rotate(10.123 152.815 400.139)" fill="#F54E2F"/>
<ellipse cx="1302.82" cy="375.139" rx="120" ry="100.613" transform="rotate(10.123 1302.82 375.139)" fill="#F54E2F"/>
<ellipse cx="1756.82" cy="253.139" rx="120" ry="100.613" transform="rotate(10.123 1756.82 253.139)" fill="#F54E2F"/>
<ellipse cx="886.452" cy="397.043" rx="120" ry="100.613" transform="rotate(10.123 886.452 397.043)" fill="#F54E2F"/>
<ellipse cx="469.721" cy="478.057" rx="120" ry="100.613" transform="rotate(10.123 469.721 478.057)" fill="#F54E2F"/>
<ellipse cx="631.135" cy="404.672" rx="120" ry="100.613" transform="rotate(10.123 631.135 404.672)" fill="#F54E2F"/>
<ellipse cx="1097.79" cy="396.766" rx="120" ry="100.613" transform="rotate(10.123 1097.79 396.766)" fill="#F54E2F"/>
<ellipse cx="1303.47" cy="422.506" rx="120" ry="100.613" transform="rotate(10.123 1303.47 422.506)" fill="#F54E2F"/>
<ellipse cx="1485.55" cy="352.812" rx="120" ry="100.613" transform="rotate(10.123 1485.55 352.812)" fill="#F54E2F"/>
<ellipse cx="1656.29" cy="295.451" rx="120" ry="100.613" transform="rotate(10.123 1656.29 295.451)" fill="#F54E2F"/>
<ellipse cx="1768.43" cy="350.103" rx="120" ry="100.613" transform="rotate(10.123 1768.43 350.103)" fill="#F54E2F"/>
<ellipse cx="1905.21" cy="340.738" rx="120" ry="100.613" transform="rotate(10.123 1905.21 340.738)" fill="#F54E2F"/>
<ellipse cx="202.184" cy="208.245" rx="202.184" ry="208.245" transform="matrix(0.750113 0.66131 -0.781787 0.623546 2040.61 33)" fill="#F54E2F"/>
<ellipse cx="134.721" cy="511.34" rx="214" ry="193.743" transform="rotate(10.123 134.721 511.34)" fill="#F54E2F"/>
<ellipse cx="372.721" cy="543.34" rx="214" ry="193.743" transform="rotate(10.123 372.721 543.34)" fill="#F54E2F"/>
<ellipse cx="517.596" cy="445.307" rx="160.549" ry="145.352" transform="rotate(10.123 517.596 445.307)" fill="#F54E2F"/>
<ellipse cx="2109.6" cy="169.307" rx="160.549" ry="145.352" transform="rotate(10.123 2109.6 169.307)" fill="#F54E2F"/>
</g>
<defs>
<clipPath id="clip0_304_1756">
<rect width="2189" height="777" fill="white"/>
</clipPath>
</defs>
</svg>
