<?xml version="1.0" encoding="UTF-8"?>
<svg id="Layer_2" data-name="Layer 2" xmlns="http://www.w3.org/2000/svg" viewBox="0 0 1953 1668">
  <defs>
    <style>
      .cls-1 {
        fill: none;
      }

      .cls-2 {
        fill: #f54e2f;
      }

      .cls-3 {
        fill: #404040;
      }
    </style>
  </defs>
  <g id="Layer_1-2" data-name="Layer 1">
    <g>
      <polygon class="cls-1" points="1552.43 1309.45 1552.43 1600.38 1603.57 1608.27 1603.57 1309.45 1552.43 1309.45"/>
      <path class="cls-1" d="M1435.56,941.33c0,75.49-1.41,152.89-4.23,232.2-2.66,79.31-7.03,147.94-13.11,205.89h49.11v-475.84h-31.77v37.75Z"/>
      <polygon class="cls-1" points="1638 759.02 1638 1613.58 1665 1617.75 1665 756.89 1638 759.02"/>
      <polygon class="cls-1" points="1397.78 1549.86 1397.78 1576.53 1489.56 1590.68 1489.56 1549.86 1397.78 1549.86"/>
      <path class="cls-1" d="M1716.82,1256.07h-15.69v274.04h16.31c5.78,0,10.25-12.24,13.42-36.73,3.16-24.48,4.75-57.44,4.75-98.88s-1.66-74.86-4.96-100.29c-3.16-25.43-7.77-38.14-13.83-38.14Z"/>
      <path class="cls-1" d="M1701.13,754.05v290.13h23.12c14.32,0,25.88,32.96,34.69,98.88,8.94,64.98,13.41,148.8,13.41,251.44,0,95.53-3.94,174.85-11.83,237.98l28.35,4.37V747.14l-87.74,6.91Z"/>
      <polygon class="cls-1" points="1518 1379.42 1518 768.46 1506.22 769.39 1506.22 1379.42 1518 1379.42"/>
      <polygon class="cls-1" points="1603.57 1109.6 1603.57 761.73 1552.43 765.75 1552.43 1109.6 1603.57 1109.6"/>
      <path class="cls-1" d="M1298.6,1470.38h-.39c-2.41,27.44-5.21,55.2-8.39,83.27l-.68,6.12,18.86,2.91-1.01-9.03-8.39-83.27Z"/>
      <path class="cls-1" d="M1378.44,1379.42c13.49-120.48,20.23-271.85,20.23-454.11v-147.46l-178.67,14.06v757.19l34.58,5.33,23.99-192.6-41.57-336.84h37.95l14.87,137.54,8.39,86.08h.39c2.41-28.69,5.21-57.38,8.39-86.08l15.06-137.54h37.95l-41.76,336.84,25.83,206.4,17.93,2.77v-191.59h16.44Z"/>
      <path class="cls-1" d="M460.15,372.05l-60.92-43.66-1.05,.85c13.73,28.26,23.9,51.08,30.51,68.46l30.16,80.88,73.94-60.3-72.64-46.25Z"/>
      <path class="cls-1" d="M1107.74,800.75v217.54h20.96c12.97,0,23.45,31.92,31.43,95.75,8.11,62.92,12.16,144.08,12.16,243.47,0,70.11-2.05,131.2-6.16,183.29l21.13,3.26V794.49l-79.52,6.26Z"/>
      <path class="cls-1" d="M1282.27,57.8c33.15,41.97,49.73,92.24,49.73,150.79,0,68.42-21.5,125.87-64.51,172.34-42.61,46.04-96.27,69.06-160.99,69.06s-118.58-23.02-161.59-69.06c-2.36-2.58-4.65-5.19-6.88-7.83-10.87,11.21-23.24,22.08-37.15,32.59l-195.63,147.87,646.73-141.12,32.37-345.63-102.09-9.01Z"/>
      <path class="cls-1" d="M995.75,253.39c5.44,20.18,14.82,38.17,28.15,53.97,22.51,26.25,50.04,39.37,82.6,39.37s60.09-13.12,82.6-39.37c22.51-26.68,33.77-59.6,33.77-98.76s-11.26-68.85-33.77-94.24c-22.51-25.39-50.04-38.08-82.6-38.08s-60.09,12.69-82.6,38.08c-22.51,25.39-33.77,56.8-33.77,94.24,0,.34,0,.67,0,1.01,4.57,13.93,6.44,28.53,5.61,43.78Z"/>
      <polygon class="cls-1" points="1491.53 381.99 1507.71 378.46 1492.3 373.8 1491.53 381.99"/>
      <polygon class="cls-1" points="1825 1642.42 1845 1645.51 1845 742.73 1825 744.3 1825 1642.42"/>
      <polygon class="cls-1" points="443.19 214.65 420.85 234.66 486.2 271.55 443.19 214.65"/>
      <path class="cls-1" d="M314.4,370.1l-10.01-31.1-54.28,48.63c17.88-8.57,35.08-14.01,51.59-16.3,4.4-.64,8.63-1.04,12.7-1.23Z"/>
      <path class="cls-1" d="M297.4,548.4l-63.55,47.12,38.88,52.42,122.49-26.73-41.01-127.42c-13.89,18.61-32.82,36.81-56.82,54.6Z"/>
      <path class="cls-1" d="M278.9,489.7c4.81-10.93,4.34-20.27-1.4-28.01-5.74-7.74-14.3-10.94-25.68-9.59-11.38,1.35-24.36,7.43-38.95,18.24l-46.36,34.38,37.98,51.21,44.79-33.22c15.28-11.33,25.15-22.33,29.61-33.01Z"/>
      <polygon class="cls-1" points="700.52 1293.2 700.52 1468.98 728.68 1473.32 712.58 1293.2 700.52 1293.2"/>
      <polygon class="cls-1" points="44.1 1158.82 44.1 1367.73 78.43 1373.03 55.26 1158.82 44.1 1158.82"/>
      <path class="cls-1" d="M240.81,1247.39c10.21-69.9,15.81-155.97,16.81-258.2h-40.25v405.27l9.64,1.49v-148.55h13.81Z"/>
      <path class="cls-1" d="M257.78,878v-10.36l-99.49,7.83c3.96,12.08,7.58,28.44,10.84,49.12,7.92,49.73,11.87,111.3,11.87,184.71s-3.96,138.53-11.87,189.69c-7.84,50.67-17.72,76.01-29.63,76.01s-21.82-25.34-29.74-76.01c-7.84-51.16-11.76-114.38-11.76-189.69s3.92-134.98,11.76-184.71c3.02-18.99,6.34-34.35,9.95-46.09l-16.85,1.33-25.46,217.12v1.49l31.6,276.56h-17.78l95.78,14.77v-511.77h70.78Z"/>
      <polygon class="cls-1" points="387.26 1341.85 381.62 1419.79 439.97 1428.79 433.53 1341.85 387.26 1341.85"/>
      <polygon class="cls-1" points="257.04 1357.01 257.04 1400.58 334.08 1412.46 334.08 1357.01 257.04 1357.01"/>
      <polygon class="cls-1" points="1892.35 1136.41 1951.33 1136.41 1951.33 1356.27 1892.35 1356.27 1892.35 1554.14 1953 1554.14 1953 945.86 1892.35 945.86 1892.35 1136.41"/>
      <path class="cls-1" d="M981.62,1560.11h22.57c5.16,0,9.17-8.49,12.03-25.46,.84-5.2,1.55-10.76,2.14-16.64l-36.75-5.67v47.77Z"/>
      <path class="cls-1" d="M288.75,965.63c0,48.55-1.18,98.33-3.54,149.34-2.24,51.01-5.91,95.15-11.01,132.42h41.23v-306.04h-26.68v24.28Z"/>
      <path class="cls-1" d="M139.5,1261.33c5.99,0,11.06-14.44,15.2-43.33,4.14-29.37,6.21-65.6,6.21-108.7s-2.07-75.77-6.21-103.72c-4.14-27.94-9.21-41.91-15.2-41.91s-11.06,13.97-15.2,41.91c-4.14,27.95-6.21,62.52-6.21,103.72s2.07,79.33,6.21,108.7c4.14,28.89,9.21,43.33,15.2,43.33Z"/>
      <polygon class="cls-1" points="55.26 1047.75 73.71 882.13 44.1 884.46 44.1 1047.75 55.26 1047.75"/>
      <polygon class="cls-1" points="1519.93 78.77 1497.74 315.71 1664.8 94.61 1519.93 78.77"/>
      <path class="cls-1" d="M1016.44,1406.11c-2.72-16.97-6.74-25.46-12.04-25.46h-22.78v131.69l36.75,5.67c1.44-14.26,2.16-30.53,2.16-48.84,0-25.87-1.36-46.89-4.08-63.06Z"/>
      <path class="cls-1" d="M410.71,1011.82h-.41c-2.21,42.69-4.22,76.35-6.02,100.98l-8.51,114.12h29.25l-8.3-114.12-6.02-100.98Z"/>
      <polygon class="cls-1" points="766 1479.08 763.28 1478.66 766 1506.83 766 1479.08"/>
      <path class="cls-1" d="M348.08,860.53v386.86h11.61l31.72-369.39h38.17l47.8,556.56,65.94,10.17,11.02-83.63c5.8,21.4,11.14,32.09,15.99,32.09,5.67,0,9.52-10.99,11.54-32.98l-55.88-482.21h38.87l24.09,229.07,7.9,85.57h.41c1.48-26.74,3.37-54.96,5.67-84.68l8.4-108.41-10.67-110.55h19.23l.85-11h37.25l-12.5,139.83,11.92,133.66h12.06v-262.49h31.04v262.49h12.06l23.41-262.49h33.34l-.87,9h62.5v149.58h-39.59v129.64h31.61v149.58h-31.61v134.62h41.62v27.99l111,17.12V875h56.53c15.77,0,28.38,19.81,37.83,59.42,9.61,38.8,14.41,94.58,14.41,167.33,0,37.19-1.58,72.76-4.73,106.71-3.16,33.15-7.53,59.01-13.11,77.61v2.42c8.16,13.74,14.18,39.21,18.05,76.4,4.01,36.37,6.02,75.98,6.02,118.83,0,14.09-.14,27.58-.42,40.49l16.42,2.53V803.32l-726.92,57.21Z"/>
      <path class="cls-1" d="M1000.32,1056.89h-18.7v154h19.34c4.44,0,7.81-7.68,10.11-23.04,2.29-15.36,3.43-34.36,3.43-56.99s-1.21-39.62-3.65-53.36c-2.29-13.74-5.8-20.61-10.53-20.61Z"/>
      <polygon class="cls-1" points="657.42 1293.2 642.51 1460.03 669.48 1464.19 669.48 1293.2 657.42 1293.2"/>
      <path class="cls-1" d="M632.06,1214.26l-2.14-22.17-14.63,163.67c-2.02,22.58-4.12,42.48-6.28,59.71-1.5,12.35-3.41,25.18-5.73,38.51l5.74,.89,23.04-238.71v-1.9Z"/>
      <path class="cls-1" d="M1121.96,1223.47h-14.22v265.36h14.78c5.24,0,9.3-11.86,12.16-35.57,2.87-23.71,4.31-55.62,4.31-95.75s-1.5-72.49-4.49-97.11c-2.87-24.62-7.05-36.93-12.54-36.93Z"/>
      <polygon class="cls-1" points="766 923.6 737.94 1214.26 737.94 1216.16 763.28 1478.66 766 1479.08 766 923.6"/>
      <polygon class="cls-1" points="606.32 464.57 489.38 559.93 503.77 597.53 700.2 554.67 655.43 495.44 606.32 464.57"/>
      <path class="cls-1" d="M1166.13,1540.8c-1.66,21.08-3.66,40.69-6,58.82-3.79,29.91-8.15,52.69-13.07,68.38h40.2v-123.94l-21.13-3.26Z"/>
      <path class="cls-1" d="M1058.58,1524.21c-1.34,61.14-5.84,109.07-13.5,143.79h29.92v-141.26l-16.42-2.53Z"/>
      <polygon class="cls-1" points="1220 1549.11 1220 1668 1240.43 1668 1254.58 1554.44 1220 1549.11"/>
      <polygon class="cls-1" points="62.83 555.42 0 611.7 0 707.46 151.13 674.48 62.83 555.42"/>
      <polygon class="cls-1" points="1289.14 1559.77 1277.09 1668 1319.72 1668 1308 1562.68 1289.14 1559.77"/>
      <polygon class="cls-1" points="17 886.59 0 887.93 0 1360.93 17 1363.55 17 886.59"/>
      <path class="cls-1" d="M833,1489.41v121.59h-67v-42h-28.77l-8.55-95.68-28.16-4.34v100.02h-31.04v-104.81l-26.97-4.16-9.74,108.97h-34.77l11.02-114.13-5.74-.89c-.81,4.63-1.66,9.33-2.57,14.08-3.38,18.42-7.49,32.69-12.35,42.79-4.86,10.1-10.33,15.15-16.4,15.15-11.61,0-22.61-16.04-33-48.13l4.37-33.14-65.94-10.17,2.61,30.44h-37.34l-2.68-36.21-58.36-9-3.27,45.21h-37.34l.43-5h-7.34v-47.54l-77.05-11.88v59.42h-30.04v-64.06l-9.64-1.49v13.54h-30.36v-18.23l-95.78-14.77h-12.58l-.21-1.97-34.33-5.29v7.27H17v-11.45l-17-2.62v307.07H944v-161.46l-111-17.12Z"/>
      <polygon class="cls-1" points="1638 1613.58 1638 1668 1665 1668 1665 1617.75 1638 1613.58"/>
      <polygon class="cls-1" points="1825 1642.42 1825 1668 1845 1668 1845 1645.51 1825 1642.42"/>
      <path class="cls-1" d="M1760.52,1632.48c-.51,4.08-1.04,8.1-1.58,12.05-1.13,8.37-2.31,16.18-3.54,23.47h33.47v-31.15l-28.35-4.37Z"/>
      <path class="cls-1" d="M601.71,180.15l42.69,56.47,81.9-61.91c46.54-35.18,92.34-52.74,137.39-52.69,10.69-.07,20.82,.82,30.41,2.65,10.56-31.19,27.48-59.16,50.81-83.9,15.87-16.67,33.22-30.25,52.04-40.77h-225.5l24.94,32.99-194.68,147.15Z"/>
      <polygon class="cls-1" points="1397.78 1576.53 1397.78 1668 1489.56 1668 1489.56 1590.68 1397.78 1576.53"/>
      <polygon class="cls-1" points="1344.07 1568.24 1356.56 1668 1362 1668 1362 1571.01 1344.07 1568.24"/>
      <polygon class="cls-1" points="1552.43 1600.38 1552.43 1668 1603.57 1668 1603.57 1608.27 1552.43 1600.38"/>
      <path class="cls-1" d="M821.05,346.12c18.8-14.21,30.78-28.59,35.94-43.16,4.91-14.9,2.88-28.29-6.1-40.16-8.97-11.87-21.52-17.31-37.65-16.31-15.93,.32-33.75,7.92-53.44,22.8l-57.73,43.64,59.22,78.35,59.75-45.16Z"/>
      <polygon class="cls-1" points="1896.52 293.62 1953 281.29 1953 0 1845.46 0 1879.59 10.32 1896.52 293.62"/>
      <path class="cls-1" d="M1692.15,239.31l94.24,28.5-1.51-93.89c-.21-20.23,.97-47.43,3.52-81.61l-1.33-.4-42.3,69.89-52.62,77.52Z"/>
      <polygon class="cls-1" points="1715.9 26.99 1736.29 0 1503.44 0 1716.47 20.53 1715.9 26.99"/>
      <path class="cls-1" d="M1220.84,0h-5.03c1.61,.9,3.2,1.83,4.78,2.77l.24-2.77Z"/>
      <polygon class="cls-1" points="1612.29 355.64 1701.37 336.2 1638.67 317.24 1612.29 355.64"/>
      <path class="cls-2" d="M297.4,548.4c23.99-17.79,42.93-35.99,56.82-54.6l-39.81-123.7c-4.06,.18-8.29,.58-12.7,1.23-16.51,2.29-33.71,7.73-51.59,16.3L62.83,555.42l88.3,119.06,121.6-26.53-38.88-52.42,63.55-47.12Zm-130.88-43.68l46.36-34.38c14.58-10.81,27.57-16.9,38.95-18.24,11.38-1.35,19.94,1.85,25.68,9.59,5.74,7.74,6.21,17.08,1.4,28.01-4.46,10.67-14.33,21.68-29.61,33.01l-44.79,33.22-37.98-51.21Z"/>
      <path class="cls-2" d="M606.32,464.57l49.11,30.87-169.23-223.89-65.35-36.89-116.46,104.33,10.01,31.1c25.07-1.12,43.68,6.48,55.81,22.84,14.22,19.18,14.62,43.3,1.18,72.36-4.44,9.61-10.17,19.11-17.18,28.51l41.01,127.42,108.55-23.69-14.39-37.6,116.94-95.36Zm-177.64-66.86c-6.6-17.38-16.77-40.2-30.51-68.46l1.05-.85,60.92,43.66,72.64,46.25-73.94,60.3-30.16-80.88Z"/>
      <path class="cls-2" d="M371.39,465.29c13.44-29.06,13.04-53.17-1.18-72.36-12.13-16.35-30.74-23.96-55.81-22.84l39.81,123.7c7.01-9.4,12.75-18.9,17.18-28.51Z"/>
      <path class="cls-2" d="M1709.5,99.5l-44.7-4.89-167.07,221.1-5.44,58.08,15.42,4.66,104.58-22.82,26.38-38.4,62.7,18.96,195.15-42.58-16.93-283.3-34.13-10.32h-109.17l-20.39,26.99-6.4,72.51Zm78.9-7.19c-2.55,34.18-3.73,61.38-3.52,81.61l1.51,93.89-94.24-28.5,52.62-77.52,42.3-69.89,1.33,.4Z"/>
      <path class="cls-2" d="M486.2,271.55l293.33,165.59-94.39,76.98-29.71-18.67,44.76,59.22,5.06-1.1,195.63-147.87c13.91-10.51,26.28-21.38,37.15-32.59-38.02-45.05-57.04-99.88-57.04-164.51,0-30.18,4.38-58.15,13.1-83.92-9.59-1.82-19.73-2.71-30.41-2.65-45.05-.06-90.85,17.51-137.39,52.69l-81.9,61.91-42.69-56.47L796.39,32.99,771.45,0h-88.68l-239.58,214.65,43.01,56.9Zm273.61-2.25c19.69-14.89,37.51-22.49,53.44-22.8,16.12-1,28.67,4.44,37.65,16.31,8.97,11.87,11.01,25.26,6.1,40.16-5.17,14.56-17.15,28.95-35.94,43.16l-59.75,45.16-59.22-78.35,57.73-43.64Z"/>
      <path class="cls-2" d="M990.14,209.61c.08,15.59,1.94,30.18,5.61,43.78,.84-15.26-1.03-29.85-5.61-43.78Z"/>
      <polygon class="cls-2" points="685.14 514.12 779.53 437.14 486.2 271.55 655.43 495.44 685.14 514.12"/>
      <path class="cls-2" d="M944.91,40.77c-23.33,24.74-40.26,52.71-50.81,83.9,31.24,5.93,56.67,21.86,76.29,47.81,8.92,11.8,15.5,24.18,19.75,37.12,0-.34,0-.67,0-1.01,0-37.44,11.26-68.85,33.77-94.24,22.51-25.39,50.04-38.08,82.6-38.08s60.09,12.69,82.6,38.08c22.51,25.39,33.77,56.8,33.77,94.24s-11.26,72.08-33.77,98.76c-22.51,26.25-50.04,39.37-82.6,39.37s-60.09-13.12-82.6-39.37c-13.33-15.8-22.71-33.79-28.15-53.97-.62,11.31-2.72,22.97-6.31,35.01-8.76,30.16-25.9,58.4-51.4,84.71,2.23,2.64,4.52,5.26,6.88,7.83,43.01,46.04,96.87,69.06,161.59,69.06s118.38-23.02,160.99-69.06c43.01-46.47,64.51-103.92,64.51-172.34,0-58.56-16.58-108.82-49.73-150.79l-66.02-5.83,4.34-49.2c-1.58-.95-3.18-1.87-4.78-2.77h-218.86c-18.82,10.52-36.17,24.1-52.04,40.77Z"/>
      <path class="cls-2" d="M995.75,253.39c-3.66-13.6-5.53-28.19-5.61-43.78-4.25-12.95-10.83-25.32-19.75-37.12-19.61-25.95-45.05-41.88-76.29-47.81-8.72,25.77-13.1,53.74-13.1,83.92,0,64.63,19.02,119.46,57.04,164.51,25.5-26.31,42.64-54.55,51.4-84.71,3.59-12.03,5.69-23.7,6.31-35.01Z"/>
      <path class="cls-2" d="M1267.49,40.77c5.25,5.51,10.17,11.19,14.78,17.03l102.09,9.01-32.37,345.63,139.54-30.45,.77-8.19-31.3-9.46,36.74-48.62,22.19-236.94,144.87,15.84,51.1-67.62,.57-6.46L1503.44,0h-282.61l-.24,2.77c16.89,10.1,32.52,22.76,46.9,38Z"/>
      <polygon class="cls-2" points="1715.9 26.99 1664.8 94.61 1709.5 99.5 1715.9 26.99"/>
      <polygon class="cls-2" points="1461 364.33 1492.3 373.8 1497.74 315.71 1461 364.33"/>
      <path class="cls-2" d="M1220.59,2.77l-4.34,49.2,66.02,5.83c-4.61-5.83-9.53-11.51-14.78-17.03-14.37-15.24-30.01-27.9-46.9-38Z"/>
      <path class="cls-3" d="M17,842h27.1v42.46l29.6-2.33,4.47-40.13h29.12l-4.44,37.83,16.85-1.33c5.83-19,12.43-28.51,19.79-28.51,6.96,0,13.22,8.5,18.79,25.47l99.49-7.83v-36.64h90.29v29.53l726.92-57.21v-87.32h32.74v84.75l79.52-6.26v-78.49h32.74v75.91l178.67-14.06v-45.85h107.55v37.39l11.78-.93v-42.46h34.43v39.75l51.14-4.02v-35.73h34.43v33.02l27-2.12v-24.89h36.13v22.05l87.74-6.91v-15.14h36.13v12.3l20-1.57v-16.73h108V281.29l-56.48,12.32,12.32,206.16-120.31-36.39-.81-101.07-86.35-26.12-89.08,19.44-30.97,45.08-73.61-22.26-16.18,3.53-4.03,43.01-135.57-11.96,.06-.6-646.73,141.12-3.75,2.83-1.31-1.73-196.43,42.86,18.81,49.16-94.39,76.98-32.97-102.45-122.49,26.73,4.38,5.91-91.15,67.6-34.84-46.98L0,707.46v180.47l17-1.34v-44.59Z"/>
      <polygon class="cls-3" points="185.96 721.45 277.11 653.86 272.73 647.94 151.13 674.48 185.96 721.45"/>
      <polygon class="cls-3" points="428.19 723.66 522.58 646.69 503.77 597.53 395.22 621.22 428.19 723.66"/>
      <polygon class="cls-3" points="1787.72 362.32 1788.53 463.39 1908.84 499.78 1896.52 293.62 1701.37 336.2 1787.72 362.32"/>
      <polygon class="cls-3" points="1581.32 400.72 1612.29 355.64 1507.71 378.46 1581.32 400.72"/>
      <polygon class="cls-3" points="701.51 556.4 705.25 553.56 700.2 554.67 701.51 556.4"/>
      <polygon class="cls-3" points="1351.93 413.04 1487.5 425 1491.53 381.99 1351.99 412.44 1351.93 413.04"/>
      <path class="cls-3" d="M46,532.73l154.7-114.72c17.02-12.62,33.49-22.74,49.42-30.38l54.28-48.63-14.52-45.12,96.49-78.69,34.49,19.47,22.34-20.01-16.64-22.01L681.39,0H0V611.7l62.83-56.29-16.83-22.69Z"/>
      <path class="cls-3" d="M200.7,418l-154.7,114.72,16.83,22.69,187.29-167.79c-15.93,7.64-32.4,17.76-49.42,30.38Z"/>
      <polygon class="cls-3" points="386.36 215.19 289.87 293.88 304.39 338.99 420.85 234.66 386.36 215.19"/>
      <polygon class="cls-3" points="443.19 214.65 682.77 0 681.39 0 426.55 192.63 443.19 214.65"/>
      <path class="cls-2" d="M391.41,878l-31.72,369.39h-11.61v-386.86l-90.29,7.11v10.36h-70.78v511.77l30.36,4.68v-405.27h40.25c-1,102.23-6.6,188.3-16.81,258.2h-13.81v148.55l30.04,4.63v-43.57h77.05v55.45l47.53,7.33,5.65-77.94h46.26l6.45,86.94,37.41,5.77-47.8-556.56h-38.17Zm-75.98,369.39h-41.23c5.1-37.27,8.77-81.41,11.01-132.42,2.36-51.01,3.54-100.79,3.54-149.34v-24.28h26.68v306.04Zm80.34-20.47l8.51-114.12c1.8-24.63,3.8-58.29,6.02-100.98h.41l6.02,100.98,8.3,114.12h-29.25Z"/>
      <polygon class="cls-2" points="1892.35 1554.14 1892.35 1356.27 1951.33 1356.27 1951.33 1136.41 1892.35 1136.41 1892.35 945.86 1953 945.86 1953 734.23 1845 742.73 1845 1645.51 1953 1662.17 1953 1554.14 1892.35 1554.14"/>
      <polygon class="cls-2" points="17 1375 44.1 1375 44.1 1367.73 17 1363.55 17 1375"/>
      <polygon class="cls-2" points="78.64 1375 91.22 1375 78.43 1373.03 78.64 1375"/>
      <path class="cls-2" d="M98,1109.3c0,75.31,3.92,138.53,11.76,189.69,7.92,50.67,17.83,76.01,29.74,76.01s21.79-25.34,29.63-76.01c7.92-51.16,11.87-114.38,11.87-189.69s-3.96-134.98-11.87-184.71c-3.26-20.68-6.87-37.04-10.84-49.12l-38.58,3.04c-3.61,11.74-6.92,27.09-9.95,46.09-7.84,49.73-11.76,111.3-11.76,184.71Zm26.3-103.72c4.14-27.94,9.21-41.91,15.2-41.91s11.06,13.97,15.2,41.91c4.14,27.95,6.21,62.52,6.21,103.72s-2.07,79.33-6.21,108.7c-4.14,28.89-9.21,43.33-15.2,43.33s-11.06-14.44-15.2-43.33c-4.14-29.37-6.21-65.6-6.21-108.7s2.07-75.77,6.21-103.72Z"/>
      <polygon class="cls-2" points="77.4 1098.44 77.4 1096.95 102.86 879.83 73.71 882.13 55.26 1047.75 44.1 1047.75 44.1 884.46 17 886.59 17 1363.55 44.1 1367.73 44.1 1158.82 55.26 1158.82 78.43 1373.03 91.22 1375 109 1375 77.4 1098.44"/>
      <polygon class="cls-2" points="1187.26 794.49 1187.26 1544.06 1220 1549.11 1220 791.91 1187.26 794.49"/>
      <path class="cls-2" d="M1160.13,1114.04c-7.98-63.83-18.46-95.75-31.43-95.75h-20.96v-217.54l-32.74,2.58v723.42l91.13,14.06c4.11-52.09,6.16-113.17,6.16-183.29,0-99.39-4.05-180.55-12.16-243.47Zm-25.45,339.22c-2.86,23.71-6.92,35.57-12.16,35.57h-14.78v-265.36h14.22c5.49,0,9.67,12.31,12.54,36.93,2.99,24.62,4.49,56.99,4.49,97.11s-1.44,72.04-4.31,95.75Z"/>
      <path class="cls-2" d="M1360,1025h-37.95l-15.06,137.54c-3.18,28.7-5.98,57.39-8.39,86.08h-.39l-8.39-86.08-14.87-137.54h-37.95l41.57,336.84-23.99,192.6,34.56,5.33,.68-6.12c3.18-28.07,5.98-55.83,8.39-83.27h.39l8.39,83.27,1.01,9.03,36.08,5.56-25.83-206.4,41.76-336.84Z"/>
      <path class="cls-2" d="M1603.57,761.73v347.87h-51.14v-343.85l-34.43,2.71v610.96h-11.78V769.39l-107.55,8.46v147.46c0,182.26-6.74,333.63-20.23,454.11h-16.44v191.59l35.78,5.52v-26.67h91.78v40.82l62.87,9.7v-290.93h51.14v298.82l34.43,5.31V759.02l-34.43,2.71Zm-136.24,617.69h-49.11c6.08-57.95,10.45-126.58,13.11-205.89,2.82-79.31,4.23-156.71,4.23-232.2v-37.75h31.77v475.84Z"/>
      <path class="cls-2" d="M1758.94,1143.06c-8.81-65.92-20.37-98.88-34.69-98.88h-23.12v-290.13l-36.13,2.84v860.85l95.52,14.73c7.89-63.13,11.83-142.45,11.83-237.98,0-102.64-4.47-186.46-13.41-251.44Zm-28.08,350.32c-3.17,24.49-7.64,36.73-13.42,36.73h-16.31v-274.04h15.69c6.06,0,10.67,12.71,13.83,38.14,3.3,25.43,4.96,58.86,4.96,100.29s-1.59,74.4-4.75,98.88Z"/>
      <polygon class="cls-2" points="1788.87 747.14 1788.87 1636.85 1825 1642.42 1825 744.3 1788.87 747.14"/>
      <path class="cls-2" d="M791.38,1461.42v-134.62h31.61v-149.58h-31.61v-129.64h39.59v-149.58h-62.5l.87-9h-33.34l-23.41,262.49h-12.06v-262.49h-31.04v262.49h-12.06l-11.92-133.66,12.5-139.83h-37.25l-.85,11h-19.23l10.67,110.55-8.4,108.41c-2.29,29.72-4.18,57.94-5.67,84.68h-.41l-7.9-85.57-24.09-229.07h-38.87l55.88,482.21c-2.02,21.99-5.87,32.98-11.54,32.98-4.86,0-10.19-10.69-15.99-32.09l-11.02,83.63,59.95,9.25c2.32-13.33,4.23-26.16,5.73-38.51,2.16-17.23,4.25-37.13,6.28-59.71l14.63-163.67,2.14,22.17v1.9l-23.04,238.71,33.49,5.17,14.91-166.83h12.06v170.99l31.04,4.79v-175.78h12.06l16.1,180.12,34.6,5.34-25.34-262.5v-1.9l28.06-290.66v555.48l67,10.33v-27.99h-41.62Z"/>
      <path class="cls-2" d="M1052.98,1364.89c-3.87-37.19-9.89-62.66-18.05-76.4v-2.42c5.58-18.6,9.95-44.46,13.11-77.61,3.15-33.95,4.73-69.52,4.73-106.71,0-72.75-4.8-128.53-14.41-167.33-9.45-39.61-22.06-59.42-37.83-59.42h-56.53v631.54l37.62,5.8v-131.69h22.78c5.3,0,9.32,8.49,12.04,25.46,2.72,16.17,4.08,37.19,4.08,63.06,0,18.31-.72,34.58-2.16,48.84l40.21,6.2c.28-12.91,.42-26.4,.42-40.49,0-42.85-2.01-82.46-6.02-118.83Zm-41.91-177.04c-2.3,15.36-5.67,23.04-10.11,23.04h-19.34v-154h18.7c4.73,0,8.24,6.87,10.53,20.61,2.44,13.74,3.65,31.53,3.65,53.36s-1.14,41.63-3.43,56.99Z"/>
      <polygon class="cls-2" points="1552.43 726 1518 726 1518 768.46 1552.43 765.75 1552.43 726"/>
      <polygon class="cls-2" points="1825 732 1788.87 732 1788.87 747.14 1825 744.3 1825 732"/>
      <polygon class="cls-2" points="1638 726 1603.57 726 1603.57 761.73 1638 759.02 1638 726"/>
      <polygon class="cls-2" points="1701.13 732 1665 732 1665 756.89 1701.13 754.05 1701.13 732"/>
      <polygon class="cls-2" points="1506.22 732 1398.67 732 1398.67 777.85 1506.22 769.39 1506.22 732"/>
      <path class="cls-2" d="M139.5,850c-7.36,0-13.96,9.51-19.79,28.51l38.58-3.04c-5.57-16.97-11.83-25.47-18.79-25.47Z"/>
      <polygon class="cls-2" points="348.08 831 257.78 831 257.78 867.64 348.08 860.53 348.08 831"/>
      <polygon class="cls-2" points="107.3 842 78.18 842 73.71 882.13 102.86 879.83 107.3 842"/>
      <polygon class="cls-2" points="1107.74 716 1075 716 1075 803.32 1107.74 800.75 1107.74 716"/>
      <polygon class="cls-2" points="44.1 842 17 842 17 886.59 44.1 884.46 44.1 842"/>
      <polygon class="cls-2" points="1220 716 1187.26 716 1187.26 794.49 1220 791.91 1220 716"/>
      <polygon class="cls-2" points="1845 742.73 1953 734.23 1953 726 1845 726 1845 742.73"/>
    </g>
  </g>
</svg>