<svg width="907" height="907" viewBox="0 0 907 907" fill="none" xmlns="http://www.w3.org/2000/svg">
<circle cx="453.242" cy="453.242" r="445.242" fill="#02E5AC" stroke="white" stroke-width="16"/>
<ellipse cx="254.509" cy="512.231" rx="108.509" ry="109.47" fill="#01AF83"/>
<ellipse cx="652.048" cy="510.47" rx="108.509" ry="109.47" fill="#01AF83"/>
<path d="M290.057 623.8C339.589 621.605 376.413 544.668 372.305 451.956C368.197 359.244 324.714 285.865 275.182 288.059C225.65 290.254 188.826 367.191 192.934 459.903C197.042 552.615 240.525 625.994 290.057 623.8Z" fill="#02E5AC" stroke="white" stroke-width="16" stroke-miterlimit="10"/>
<path d="M630.921 618.304C680.453 616.109 717.276 539.172 713.168 446.46C709.061 353.748 665.577 280.369 616.045 282.563C566.513 284.758 529.689 361.695 533.797 454.407C537.905 547.119 581.389 620.498 630.921 618.304Z" fill="#02E5AC" stroke="white" stroke-width="16" stroke-miterlimit="10"/>
<path d="M197.484 475.699L371.014 468.011" stroke="white" stroke-width="16" stroke-miterlimit="10"/>
<path d="M536.129 470.293L709.658 462.604" stroke="white" stroke-width="16" stroke-miterlimit="10"/>
</svg>
