<svg width="1465" height="881" viewBox="0 0 1465 881" fill="none" xmlns="http://www.w3.org/2000/svg">
<rect x="21" y="21" width="1423" height="839" rx="29" fill="white" stroke="#02E5AC" stroke-width="42"/>
<rect x="25" y="30" width="1400" height="134" fill="#02E5AC"/>
<path d="M66.875 101H62.5H58.125H53.75H49.375H45V96.625V92.25V87.875V83.5V79.125V74.75V70.375V66V61.625V57.25V52.875H49.375H53.75H58.125H62.5H66.875H71.25V57.25H75.625V61.625V66V70.375V74.75H71.25V79.125H75.625V83.5V87.875V92.25V96.625H71.25V101H66.875ZM62.5 92.25V87.875V83.5V79.125H58.125V83.5V87.875V92.25H62.5ZM62.5 70.375V66V61.625H58.125V66V70.375H62.5ZM128.125 101H123.75H119.375V96.625V92.25V87.875V83.5V79.125V74.75V70.375V66V61.625H123.75H128.125H132.5V66V70.375V74.75V79.125V83.5V87.875V92.25V96.625V101H128.125ZM106.25 101H101.875H97.5H93.125H88.75V96.625H84.375V92.25V87.875V83.5V79.125V74.75V70.375V66V61.625H88.75H93.125H97.5V66V70.375V74.75H101.875H106.25H110.625V79.125H115V83.5V87.875V92.25V96.625H110.625V101H106.25ZM101.875 92.25V87.875V83.5H97.5V87.875V92.25H101.875ZM185 101H180.625H176.25H171.875H167.5V96.625H163.125V92.25V87.875V83.5V79.125V74.75V70.375H167.5V66H171.875H176.25H180.625V61.625H176.25H171.875V57.25V52.875H176.25H180.625H185H189.375V57.25H193.75V61.625V66V70.375V74.75V79.125V83.5V87.875V92.25V96.625H189.375V101H185ZM180.625 92.25V87.875V83.5V79.125V74.75H176.25V79.125V83.5V87.875V92.25H180.625ZM224.375 101H220H215.625H211.25H206.875V96.625H202.5V92.25V87.875V83.5V79.125V74.75V70.375V66H206.875V61.625H211.25H215.625H220H224.375H228.75V66H233.125V70.375V74.75V79.125V83.5H228.75H224.375H220H215.625V87.875V92.25H220V87.875H224.375H228.75H233.125V92.25V96.625H228.75V101H224.375ZM220 74.75V70.375H215.625V74.75H220ZM268.125 101H263.75H259.375H255H250.625H246.25V96.625H241.875V92.25V87.875V83.5V79.125V74.75V70.375V66H246.25H250.625H255V70.375V74.75V79.125V83.5V87.875V92.25H259.375V87.875V83.5V79.125V74.75V70.375V66H263.75H268.125H272.5V70.375V74.75V79.125V83.5V87.875V92.25V96.625V101H268.125ZM259.375 61.625H255H250.625V57.25H246.25V52.875V48.5H250.625H255V52.875H259.375V48.5H263.75H268.125V52.875V57.25H263.75V61.625H259.375ZM303.125 101H298.75H294.375H290H285.625V96.625H281.25V92.25V87.875V83.5V79.125V74.75V70.375V66H285.625V61.625H290H294.375H298.75H303.125H307.5V66H311.875V70.375V74.75H307.5H303.125H298.75V70.375H294.375V74.75V79.125V83.5V87.875V92.25H298.75V87.875V83.5H303.125H307.5H311.875V87.875V92.25V96.625H307.5V101H303.125ZM364.375 101H360H355.625V96.625V92.25V87.875V83.5V79.125V74.75V70.375H351.25V74.75V79.125V83.5V87.875V92.25V96.625V101H346.875H342.5H338.125V96.625V92.25V87.875V83.5V79.125V74.75V70.375H333.75V74.75V79.125V83.5V87.875V92.25V96.625V101H329.375H325H320.625V96.625V92.25V87.875V83.5V79.125V74.75V70.375V66V61.625H325H329.375H333.75H338.125H342.5H346.875H351.25H355.625H360H364.375V66H368.75V70.375V74.75V79.125V83.5V87.875V92.25V96.625V101H364.375ZM399.375 101H395H390.625H386.25H381.875V96.625H377.5V92.25V87.875V83.5V79.125V74.75V70.375V66V61.625V57.25H381.875V52.875H386.25H390.625H395H399.375H403.75V57.25H408.125V61.625V66V70.375H403.75V74.75H408.125V79.125V83.5V87.875V92.25V96.625H403.75V101H399.375ZM395 92.25V87.875V83.5V79.125V74.75H390.625V79.125V83.5V87.875V92.25H395ZM395 66V61.625H390.625V66H395ZM443.125 101H438.75H434.375H430H425.625H421.25V96.625H416.875V92.25V87.875V83.5V79.125V74.75V70.375V66V61.625H421.25H425.625H430V66V70.375V74.75V79.125V83.5V87.875V92.25H434.375V87.875V83.5V79.125V74.75V70.375V66H438.75H443.125H447.5V70.375V74.75V79.125V83.5V87.875V92.25V96.625V101H443.125ZM500 101H495.625H491.25V96.625V92.25V87.875V83.5V79.125V74.75V70.375H486.875V74.75V79.125V83.5V87.875V92.25V96.625V101H482.5H478.125H473.75V96.625V92.25V87.875V83.5V79.125V74.75V70.375H469.375V74.75V79.125V83.5V87.875V92.25V96.625V101H465H460.625H456.25V96.625V92.25V87.875V83.5V79.125V74.75V70.375V66V61.625H460.625H465H469.375H473.75H478.125H482.5H486.875H491.25H495.625H500V66H504.375V70.375V74.75V79.125V83.5V87.875V92.25V96.625V101H500ZM535 101H530.625H526.25H521.875H517.5V96.625H513.125V92.25V87.875V83.5V79.125V74.75V70.375V66H517.5V61.625H521.875H526.25H530.625H535H539.375V66H543.75V70.375V74.75V79.125V83.5H539.375H535H530.625H526.25V87.875V92.25H530.625V87.875H535H539.375H543.75V92.25V96.625H539.375V101H535ZM530.625 74.75V70.375H526.25V74.75H530.625ZM583.125 101H578.75H574.375V96.625V92.25V87.875V83.5V79.125V74.75V70.375H570V74.75V79.125V83.5V87.875V92.25V96.625H565.625V101H561.25H556.875H552.5V96.625V92.25H556.875V87.875V83.5V79.125V74.75V70.375V66V61.625H561.25H565.625H570H574.375H578.75H583.125H587.5V66V70.375V74.75V79.125V83.5V87.875V92.25V96.625V101H583.125ZM618.125 101H613.75H609.375H605H600.625V96.625H596.25V92.25V87.875V83.5V79.125V74.75V70.375V66V61.625H600.625H605H609.375V66V70.375V74.75H613.75H618.125H622.5V79.125H626.875V83.5V87.875V92.25V96.625H622.5V101H618.125ZM613.75 92.25V87.875V83.5H609.375V87.875V92.25H613.75ZM661.875 101H657.5H653.125V96.625V92.25V87.875V83.5H648.75V87.875V92.25V96.625V101H644.375H640H635.625V96.625V92.25V87.875V83.5V79.125V74.75V70.375V66V61.625H640H644.375H648.75V66V70.375V74.75H653.125V70.375V66V61.625H657.5H661.875H666.25V66V70.375V74.75V79.125V83.5V87.875V92.25V96.625V101H661.875ZM696.875 101H692.5H688.125H683.75H679.375V96.625H675V92.25V87.875V83.5V79.125V74.75V70.375V66H679.375V61.625H683.75H688.125H692.5H696.875H701.25V66H705.625V70.375V74.75V79.125V83.5V87.875V92.25V96.625H701.25V101H696.875ZM692.5 92.25V87.875V83.5V79.125V74.75V70.375H688.125V74.75V79.125V83.5V87.875V92.25H692.5ZM762.5 101H758.125H753.75V96.625V92.25H749.375V96.625H745H740.625H736.25V92.25H740.625V87.875H745V83.5H749.375V79.125H745V74.75V70.375H740.625V66H736.25V61.625H740.625H745H749.375V66V70.375H753.75V66H758.125H762.5H766.875V70.375H762.5V74.75H758.125V79.125H753.75V83.5H758.125V87.875V92.25H762.5V96.625H766.875V101H762.5ZM797.5 101H793.125H788.75H784.375H780V96.625H775.625V92.25V87.875V83.5V79.125V74.75V70.375V66H780V61.625H784.375H788.75H793.125H797.5H801.875V66H806.25V70.375V74.75V79.125V83.5V87.875V92.25V96.625H801.875V101H797.5ZM793.125 92.25V87.875V83.5V79.125V74.75V70.375H788.75V74.75V79.125V83.5V87.875V92.25H793.125ZM858.75 101H854.375H850V96.625V92.25V87.875V83.5V79.125V74.75V70.375H845.625V74.75V79.125V83.5V87.875V92.25V96.625V101H841.25H836.875H832.5V96.625V92.25V87.875V83.5V79.125V74.75V70.375H828.125V74.75V79.125V83.5V87.875V92.25V96.625V101H823.75H819.375H815V96.625V92.25V87.875V83.5V79.125V74.75V70.375V66V61.625H819.375H823.75H828.125H832.5H836.875H841.25H845.625H850H854.375H858.75V66H863.125V70.375V74.75V79.125V83.5V87.875V92.25V96.625V101H858.75ZM898.125 101H893.75H889.375H885H880.625H876.25V96.625H871.875V92.25V87.875V83.5V79.125V74.75V70.375V66V61.625H876.25H880.625H885V66V70.375V74.75V79.125V83.5V87.875V92.25H889.375V87.875V83.5V79.125V74.75V70.375V66H893.75H898.125H902.5V70.375V74.75V79.125V83.5V87.875V92.25V96.625V101H898.125ZM955 101H950.625H946.25V96.625V92.25V87.875V83.5V79.125V74.75V70.375H941.875V74.75V79.125V83.5V87.875V92.25V96.625V101H937.5H933.125H928.75V96.625V92.25V87.875V83.5V79.125V74.75V70.375H924.375V74.75V79.125V83.5V87.875V92.25V96.625V101H920H915.625H911.25V96.625V92.25V87.875V83.5V79.125V74.75V70.375V66V61.625H915.625H920H924.375H928.75H933.125H937.5H941.875H946.25H950.625H955V66H959.375V70.375V74.75V79.125V83.5V87.875V92.25V96.625V101H955ZM990 101H985.625H981.25H976.875H972.5V96.625H968.125V92.25V87.875V83.5V79.125V74.75V70.375V66H972.5V61.625H976.875H981.25H985.625H990H994.375V66H998.75V70.375V74.75V79.125V83.5H994.375H990H985.625H981.25V87.875V92.25H985.625V87.875H990H994.375H998.75V92.25V96.625H994.375V101H990ZM985.625 74.75V70.375H981.25V74.75H985.625ZM1051.25 114.125H1046.88H1042.5H1038.12H1033.75V109.75V105.375H1038.12H1042.5H1046.88V101H1042.5H1038.12H1033.75V96.625H1029.38V92.25V87.875V83.5V79.125V74.75V70.375V66V61.625H1033.75H1038.12H1042.5V66V70.375V74.75V79.125V83.5V87.875V92.25H1046.88V87.875V83.5V79.125V74.75V70.375V66H1051.25H1055.62H1060V70.375V74.75V79.125V83.5V87.875V92.25V96.625V101V105.375V109.75H1055.62V114.125H1051.25ZM1090.62 101H1086.25H1081.88H1077.5H1073.12V96.625H1068.75V92.25V87.875V83.5V79.125V74.75V70.375V66V61.625V57.25H1073.12V52.875H1077.5H1081.88H1086.25H1090.62H1095V57.25H1099.38V61.625V66V70.375H1095V74.75H1099.38V79.125V83.5V87.875V92.25V96.625H1095V101H1090.62ZM1086.25 92.25V87.875V83.5V79.125V74.75H1081.88V79.125V83.5V87.875V92.25H1086.25ZM1086.25 66V61.625H1081.88V66H1086.25ZM1130 101H1125.62H1121.25H1116.88H1112.5V96.625H1108.12V92.25V87.875V83.5V79.125V74.75V70.375V66H1112.5V61.625H1116.88H1121.25H1125.62H1130H1134.38V66H1138.75V70.375V74.75V79.125V83.5V87.875V92.25V96.625H1134.38V101H1130ZM1125.62 92.25V87.875V83.5V79.125V74.75V70.375H1121.25V74.75V79.125V83.5V87.875V92.25H1125.62ZM1178.12 101H1173.75H1169.38V96.625V92.25V87.875V83.5V79.125V74.75V70.375H1165V74.75V79.125V83.5V87.875V92.25V96.625H1160.62V101H1156.25H1151.88H1147.5V96.625V92.25H1151.88V87.875V83.5V79.125V74.75V70.375V66V61.625H1156.25H1160.62H1165H1169.38H1173.75H1178.12H1182.5V66V70.375V74.75V79.125V83.5V87.875V92.25V96.625V101H1178.12ZM1217.5 101H1213.12H1208.75H1204.38H1200H1195.62V96.625H1191.25V92.25V87.875V83.5V79.125V74.75V70.375V66V61.625H1195.62H1200H1204.38V66V70.375V74.75V79.125V83.5V87.875V92.25H1208.75V87.875V83.5V79.125V74.75V70.375V66H1213.12H1217.5H1221.88V70.375V74.75V79.125V83.5V87.875V92.25V96.625V101H1217.5ZM1274.38 101H1270H1265.62V96.625V92.25V87.875V83.5V79.125V74.75V70.375H1261.25V74.75V79.125V83.5V87.875V92.25V96.625V101H1256.88H1252.5H1248.12V96.625V92.25V87.875V83.5V79.125V74.75V70.375H1243.75V74.75V79.125V83.5V87.875V92.25V96.625V101H1239.38H1235H1230.62V96.625V92.25V87.875V83.5V79.125V74.75V70.375V66V61.625H1235H1239.38H1243.75H1248.12H1252.5H1256.88H1261.25H1265.62H1270H1274.38V66H1278.75V70.375V74.75V79.125V83.5V87.875V92.25V96.625V101H1274.38ZM1309.38 101H1305H1300.62H1296.25H1291.88V96.625H1287.5V92.25V87.875V83.5V79.125V74.75V70.375V66V61.625H1291.88H1296.25H1300.62V66V70.375V74.75H1305H1309.38H1313.75V79.125H1318.12V83.5V87.875V92.25V96.625H1313.75V101H1309.38ZM1305 92.25V87.875V83.5H1300.62V87.875V92.25H1305ZM1348.75 101H1344.38H1340H1335.62H1331.25V96.625H1326.88V92.25V87.875V83.5V79.125V74.75V70.375V66H1331.25V61.625H1335.62H1340H1344.38H1348.75H1353.12V66H1357.5V70.375V74.75H1353.12H1348.75H1344.38V70.375H1340V74.75V79.125V83.5V87.875V92.25H1344.38V87.875V83.5H1348.75H1353.12H1357.5V87.875V92.25V96.625H1353.12V101H1348.75ZM1392.5 101H1388.12H1383.75V96.625V92.25V87.875V83.5H1379.38V87.875V92.25V96.625H1375H1370.62H1366.25V92.25V87.875V83.5H1370.62V79.125H1366.25V74.75V70.375V66H1370.62V61.625H1375H1379.38H1383.75H1388.12H1392.5H1396.88V66V70.375V74.75V79.125V83.5V87.875V92.25V96.625V101H1392.5ZM1383.75 74.75V70.375H1379.38V74.75H1383.75ZM1414.38 101H1410H1405.62V96.625V92.25H1410H1414.38H1418.75V96.625V101H1414.38ZM1427.5 87.875H1423.12V83.5H1418.75V87.875H1414.38H1410H1405.62V83.5V79.125V74.75H1410H1414.38H1418.75V79.125H1423.12V74.75V70.375V66V61.625H1418.75V66V70.375H1414.38H1410H1405.62V66V61.625V57.25H1410V52.875H1414.38H1418.75H1423.12H1427.5H1431.88V57.25H1436.25V61.625V66V70.375V74.75V79.125V83.5H1431.88V87.875H1427.5Z" fill="#404040"/>
<path d="M482.375 754H480.5H478.625H476.75H474.875V752.125H473V750.25V748.375V746.5V744.625V742.75V740.875V739V737.125V735.25H474.875V733.375H476.75H478.625H480.5H482.375H484.25V735.25H486.125V737.125V739H484.25H482.375H480.5V737.125H478.625V739V740.875V742.75V744.625V746.5V748.375V750.25H480.5V748.375V746.5H482.375H484.25H486.125V748.375V750.25V752.125H484.25V754H482.375ZM501.125 754H499.25H497.375V752.125V750.25V748.375V746.5V744.625V742.75V740.875H495.5V742.75V744.625V746.5V748.375V750.25V752.125V754H493.625H491.75H489.875V752.125V750.25V748.375V746.5V744.625V742.75V740.875V739V737.125H491.75H493.625H495.5H497.375H499.25H501.125V739H503V740.875V742.75V744.625V746.5V748.375V750.25V752.125V754H501.125ZM518 754H516.125H514.25H512.375H510.5H508.625V752.125H506.75V750.25V748.375V746.5V744.625V742.75V740.875V739H508.625V737.125H510.5H512.375H514.25H516.125H518H519.875V739V740.875V742.75V744.625V746.5V748.375V750.25V752.125V754H518ZM514.25 750.25V748.375V746.5V744.625V742.75V740.875H512.375V742.75V744.625V746.5V748.375V750.25H514.25ZM533 754H531.125H529.25H527.375H525.5V752.125H523.625V750.25V748.375V746.5V744.625V742.75V740.875V739H525.5V737.125H527.375H529.25H531.125H533H534.875V739H536.75V740.875V742.75H534.875H533H531.125V740.875H529.25V742.75V744.625V746.5V748.375V750.25H531.125V748.375V746.5H533H534.875H536.75V748.375V750.25V752.125H534.875V754H533ZM551.75 754H549.875H548H546.125H544.25H542.375V752.125H540.5V750.25V748.375V746.5V744.625V742.75V740.875V739V737.125H542.375H544.25H546.125V739V740.875V742.75V744.625V746.5V748.375V750.25H548V748.375V746.5V744.625V742.75V740.875V739H549.875H551.75H553.625V740.875V742.75V744.625V746.5V748.375V750.25V752.125V754H551.75ZM566.75 754H564.875H563H561.125H559.25V752.125H557.375V750.25V748.375V746.5V744.625V742.75V740.875V739V737.125V735.25H559.25V733.375H561.125H563H564.875V731.5H566.75H568.625H570.5V733.375V735.25H568.625V737.125H566.75H564.875H563V739H564.875H566.75H568.625V740.875H570.5V742.75V744.625V746.5V748.375V750.25V752.125H568.625V754H566.75ZM564.875 750.25V748.375V746.5V744.625V742.75H563V744.625V746.5V748.375V750.25H564.875ZM583.625 754H581.75H579.875H578H576.125V752.125H574.25V750.25V748.375V746.5V744.625V742.75V740.875V739H576.125V737.125H578H579.875H581.75H583.625H585.5V739H587.375V740.875V742.75V744.625V746.5V748.375V750.25V752.125H585.5V754H583.625ZM581.75 750.25V748.375V746.5V744.625V742.75V740.875H579.875V742.75V744.625V746.5V748.375V750.25H581.75ZM591.125 757.75V755.875H593V757.75H591.125ZM593 755.875V754H591.125V752.125V750.25H593H594.875V752.125V754V755.875H593ZM617.375 754H615.5H613.625H611.75H609.875V752.125H608V750.25V748.375V746.5V744.625V742.75V740.875V739V737.125V735.25H609.875V733.375H611.75H613.625H615.5H617.375H619.25V735.25H621.125V737.125V739V740.875H619.25V742.75H621.125V744.625V746.5V748.375V750.25V752.125H619.25V754H617.375ZM615.5 750.25V748.375V746.5V744.625V742.75H613.625V744.625V746.5V748.375V750.25H615.5ZM615.5 739V737.125H613.625V739H615.5ZM634.25 754H632.375H630.5H628.625H626.75V752.125H624.875V750.25V748.375V746.5V744.625V742.75V740.875V739H626.75V737.125H628.625H630.5H632.375H634.25H636.125V739H638V740.875V742.75V744.625V746.5V748.375V750.25V752.125H636.125V754H634.25ZM632.375 750.25V748.375V746.5V744.625V742.75V740.875H630.5V742.75V744.625V746.5V748.375V750.25H632.375ZM651.125 759.625H649.25H647.375H645.5H643.625V757.75H641.75V755.875V754H643.625H645.5H647.375V755.875H649.25V754V752.125V750.25H647.375H645.5V748.375V746.5H647.375H649.25V744.625V742.75V740.875H647.375V742.75H645.5H643.625H641.75V740.875V739H643.625V737.125H645.5H647.375H649.25H651.125H653V739H654.875V740.875V742.75V744.625V746.5V748.375H653V750.25H654.875V752.125V754V755.875V757.75H653V759.625H651.125ZM668 754H666.125H664.25H662.375H660.5V752.125H658.625V750.25V748.375V746.5V744.625V742.75V740.875V739V737.125V735.25H660.5V733.375H662.375H664.25H666.125H668H669.875V735.25H671.75V737.125V739V740.875H669.875V742.75H671.75V744.625V746.5V748.375V750.25V752.125H669.875V754H668ZM666.125 750.25V748.375V746.5V744.625V742.75H664.25V744.625V746.5V748.375V750.25H666.125ZM666.125 739V737.125H664.25V739H666.125ZM679.25 759.625H677.375H675.5V757.75V755.875V754V752.125V750.25V748.375V746.5V744.625V742.75V740.875V739V737.125H677.375H679.25H681.125H683H684.875H686.75V739H688.625V740.875V742.75V744.625V746.5V748.375V750.25V752.125H686.75V754H684.875H683H681.125V755.875V757.75V759.625H679.25ZM683 750.25V748.375V746.5V744.625V742.75V740.875H681.125V742.75V744.625V746.5V748.375V750.25H683ZM703.625 754H701.75H699.875H698H696.125H694.25V752.125H692.375V750.25V748.375V746.5V744.625V742.75V740.875V739H694.25V737.125H696.125H698H699.875H701.75H703.625H705.5V739V740.875V742.75V744.625V746.5V748.375V750.25V752.125V754H703.625ZM699.875 750.25V748.375V746.5V744.625V742.75V740.875H698V742.75V744.625V746.5V748.375V750.25H699.875ZM731.75 755.875H729.875V754H728H726.125H724.25H722.375H720.5H718.625H716.75H714.875H713H711.125V752.125H709.25V750.25V748.375V746.5V744.625V742.75V740.875V739V737.125H711.125H713H714.875V739V740.875V742.75V744.625V746.5V748.375V750.25H716.75V748.375V746.5V744.625V742.75V740.875V739V737.125H718.625H720.5H722.375V739V740.875V742.75V744.625V746.5V748.375V750.25H724.25V748.375V746.5V744.625V742.75V740.875V739H726.125H728H729.875V740.875V742.75V744.625V746.5V748.375V750.25H731.75H733.625V752.125V754V755.875H731.75ZM748.625 754H746.75H744.875H743H741.125H739.25V752.125H737.375V750.25V748.375V746.5V744.625V742.75V740.875V739H739.25V737.125H741.125H743H744.875H746.75H748.625H750.5V739V740.875V742.75V744.625V746.5V748.375V750.25V752.125V754H748.625ZM744.875 750.25V748.375V746.5V744.625V742.75V740.875H743V742.75V744.625V746.5V748.375V750.25H744.875ZM765.5 754H763.625H761.75H759.875H758H756.125V752.125H754.25V750.25V748.375V746.5V744.625V742.75V740.875V739H756.125H758H759.875V740.875V742.75V744.625V746.5V748.375V750.25H761.75V748.375V746.5V744.625V742.75V740.875V739H763.625H765.5H767.375V740.875V742.75V744.625V746.5V748.375V750.25V752.125V754H765.5ZM761.75 737.125H759.875H758V735.25H756.125V733.375V731.5H758H759.875V733.375H761.75V731.5H763.625H765.5V733.375V735.25H763.625V737.125H761.75ZM789.875 754H788H786.125V752.125V750.25V748.375V746.5V744.625V742.75V740.875H784.25V742.75V744.625V746.5V748.375V750.25V752.125V754H782.375H780.5H778.625V752.125V750.25V748.375V746.5V744.625V742.75V740.875H776.75V742.75V744.625V746.5V748.375V750.25V752.125V754H774.875H773H771.125V752.125V750.25V748.375V746.5V744.625V742.75V740.875V739V737.125H773H774.875H776.75H778.625H780.5H782.375H784.25H786.125H788H789.875V739H791.75V740.875V742.75V744.625V746.5V748.375V750.25V752.125V754H789.875ZM804.875 754H803H801.125H799.25H797.375V752.125H795.5V750.25V748.375V746.5V744.625V742.75V740.875V739H797.375V737.125H799.25H801.125H803H804.875H806.75V739H808.625V740.875V742.75V744.625V746.5H806.75H804.875H803H801.125V748.375V750.25H803V748.375H804.875H806.75H808.625V750.25V752.125H806.75V754H804.875ZM803 742.75V740.875H801.125V742.75H803ZM821.75 754H819.875H818H816.125H814.25V752.125H812.375V750.25V748.375V746.5V744.625V742.75V740.875V739H814.25V737.125H816.125H818H819.875H821.75H823.625V739H825.5V740.875V742.75H823.625H821.75H819.875V740.875H818V742.75V744.625V746.5V748.375V750.25H819.875V748.375V746.5H821.75H823.625H825.5V748.375V750.25V752.125H823.625V754H821.75ZM838.625 754H836.75H834.875H833H831.125V752.125H829.25V750.25V748.375V746.5V744.625V742.75V740.875V739V737.125H831.125H833H834.875V739V740.875V742.75H836.75H838.625H840.5V744.625H842.375V746.5V748.375V750.25V752.125H840.5V754H838.625ZM836.75 750.25V748.375V746.5H834.875V748.375V750.25H836.75ZM866.75 754H864.875H863V752.125V750.25V748.375H861.125V750.25V752.125H859.25H857.375H855.5V750.25V748.375V746.5V744.625V742.75V740.875V739V737.125H857.375H859.25H861.125V739V740.875H863V739V737.125H864.875H866.75H868.625V739V740.875H866.75V742.75V744.625H864.875V746.5H866.75V748.375V750.25H868.625V752.125V754H866.75ZM885.5 759.625H883.625H881.75V757.75V755.875V754V752.125V750.25V748.375V746.5V744.625V742.75V740.875V739V737.125H883.625H885.5H887.375H889.25H891.125H893V739H894.875V740.875V742.75V744.625V746.5V748.375V750.25V752.125H893V754H891.125H889.25H887.375V755.875V757.75V759.625H885.5ZM889.25 750.25V748.375V746.5V744.625V742.75V740.875H887.375V742.75V744.625V746.5V748.375V750.25H889.25ZM909.875 754H908H906.125H904.25H902.375H900.5V752.125H898.625V750.25V748.375V746.5V744.625V742.75V740.875V739H900.5V737.125H902.375H904.25H906.125H908H909.875H911.75V739V740.875V742.75V744.625V746.5V748.375V750.25V752.125V754H909.875ZM906.125 750.25V748.375V746.5V744.625V742.75V740.875H904.25V742.75V744.625V746.5V748.375V750.25H906.125ZM924.875 754H923H921.125H919.25H917.375V752.125H915.5V750.25V748.375V746.5V744.625V742.75V740.875V739V737.125V735.25H917.375V733.375H919.25H921.125H923V731.5H924.875H926.75H928.625V733.375V735.25H926.75V737.125H924.875H923H921.125V739H923H924.875H926.75V740.875H928.625V742.75V744.625V746.5V748.375V750.25V752.125H926.75V754H924.875ZM923 750.25V748.375V746.5V744.625V742.75H921.125V744.625V746.5V748.375V750.25H923ZM941.75 754H939.875H938H936.125H934.25V752.125H932.375V750.25V748.375V746.5V744.625V742.75V740.875V739H934.25V737.125H936.125H938H939.875H941.75H943.625V739H945.5V740.875V742.75V744.625V746.5V748.375V750.25V752.125H943.625V754H941.75ZM939.875 750.25V748.375V746.5V744.625V742.75V740.875H938V742.75V744.625V746.5V748.375V750.25H939.875ZM968 754H966.125H964.25V752.125V750.25V748.375V746.5V744.625V742.75V740.875H962.375V742.75V744.625V746.5V748.375V750.25V752.125V754H960.5H958.625H956.75V752.125V750.25V748.375V746.5V744.625V742.75V740.875H954.875V742.75V744.625V746.5V748.375V750.25V752.125V754H953H951.125H949.25V752.125V750.25V748.375V746.5V744.625V742.75V740.875V739V737.125H951.125H953H954.875H956.75H958.625H960.5H962.375H964.25H966.125H968V739H969.875V740.875V742.75V744.625V746.5V748.375V750.25V752.125V754H968ZM983 754H981.125H979.25H977.375H975.5V752.125H973.625V750.25V748.375V746.5V744.625V742.75V740.875V739H975.5V737.125H977.375H979.25H981.125H983H984.875V739H986.75V740.875V742.75V744.625V746.5H984.875H983H981.125H979.25V748.375V750.25H981.125V748.375H983H984.875H986.75V750.25V752.125H984.875V754H983ZM981.125 742.75V740.875H979.25V742.75H981.125Z" fill="#404040"/>
</svg>
