<svg width="1465" height="881" viewBox="0 0 1465 881" fill="none" xmlns="http://www.w3.org/2000/svg">
<rect x="21" y="21" width="1423" height="839" rx="29" fill="white" stroke="#02E5AC" stroke-width="42"/>
<rect x="25" y="30" width="1400" height="134" fill="#02E5AC"/>
<path d="M66.5625 106H62.25H57.9375H53.625H49.3125H45V101.688V97.375V93.0625V88.75V84.4375V80.125V75.8125V71.5V67.1875V62.875V58.5625H49.3125H53.625H57.9375H62.25H66.5625H70.875V62.875H75.1875V67.1875V71.5V75.8125V80.125H70.875V84.4375H75.1875V88.75V93.0625V97.375V101.688H70.875V106H66.5625ZM62.25 97.375V93.0625V88.75V84.4375H57.9375V88.75V93.0625V97.375H62.25ZM62.25 75.8125V71.5V67.1875H57.9375V71.5V75.8125H62.25ZM126.938 106H122.625H118.312V101.688V97.375V93.0625V88.75V84.4375V80.125V75.8125V71.5V67.1875H122.625H126.938H131.25V71.5V75.8125V80.125V84.4375V88.75V93.0625V97.375V101.688V106H126.938ZM105.375 106H101.062H96.75H92.4375H88.125V101.688H83.8125V97.375V93.0625V88.75V84.4375V80.125V75.8125V71.5V67.1875H88.125H92.4375H96.75V71.5V75.8125V80.125H101.062H105.375H109.688V84.4375H114V88.75V93.0625V97.375V101.688H109.688V106H105.375ZM101.062 97.375V93.0625V88.75H96.75V93.0625V97.375H101.062ZM183 106H178.688H174.375H170.062H165.75V101.688H161.438V97.375V93.0625V88.75V84.4375V80.125V75.8125H165.75V71.5H170.062H174.375H178.688V67.1875H174.375H170.062V62.875V58.5625H174.375H178.688H183H187.312V62.875H191.625V67.1875V71.5V75.8125V80.125V84.4375V88.75V93.0625V97.375V101.688H187.312V106H183ZM178.688 97.375V93.0625V88.75V84.4375V80.125H174.375V84.4375V88.75V93.0625V97.375H178.688ZM221.812 106H217.5H213.188H208.875H204.562V101.688H200.25V97.375V93.0625V88.75V84.4375V80.125V75.8125V71.5H204.562V67.1875H208.875H213.188H217.5H221.812H226.125V71.5H230.438V75.8125V80.125V84.4375V88.75H226.125H221.812H217.5H213.188V93.0625V97.375H217.5V93.0625H221.812H226.125H230.438V97.375V101.688H226.125V106H221.812ZM217.5 80.125V75.8125H213.188V80.125H217.5ZM264.938 106H260.625H256.312H252H247.688H243.375V101.688H239.062V97.375V93.0625V88.75V84.4375V80.125V75.8125V71.5H243.375H247.688H252V75.8125V80.125V84.4375V88.75V93.0625V97.375H256.312V93.0625V88.75V84.4375V80.125V75.8125V71.5H260.625H264.938H269.25V75.8125V80.125V84.4375V88.75V93.0625V97.375V101.688V106H264.938ZM256.312 67.1875H252H247.688V62.875H243.375V58.5625V54.25H247.688H252V58.5625H256.312V54.25H260.625H264.938V58.5625V62.875H260.625V67.1875H256.312ZM299.438 106H295.125H290.812H286.5H282.188V101.688H277.875V97.375V93.0625V88.75V84.4375V80.125V75.8125V71.5H282.188V67.1875H286.5H290.812H295.125H299.438H303.75V71.5H308.062V75.8125V80.125H303.75H299.438H295.125V75.8125H290.812V80.125V84.4375V88.75V93.0625V97.375H295.125V93.0625V88.75H299.438H303.75H308.062V93.0625V97.375V101.688H303.75V106H299.438ZM359.812 106H355.5H351.188V101.688V97.375V93.0625V88.75V84.4375V80.125V75.8125H346.875V80.125V84.4375V88.75V93.0625V97.375V101.688V106H342.562H338.25H333.938V101.688V97.375V93.0625V88.75V84.4375V80.125V75.8125H329.625V80.125V84.4375V88.75V93.0625V97.375V101.688V106H325.312H321H316.688V101.688V97.375V93.0625V88.75V84.4375V80.125V75.8125V71.5V67.1875H321H325.312H329.625H333.938H338.25H342.562H346.875H351.188H355.5H359.812V71.5H364.125V75.8125V80.125V84.4375V88.75V93.0625V97.375V101.688V106H359.812ZM394.312 106H390H385.688H381.375H377.062V101.688H372.75V97.375V93.0625V88.75V84.4375V80.125V75.8125V71.5V67.1875V62.875H377.062V58.5625H381.375H385.688H390H394.312H398.625V62.875H402.938V67.1875V71.5V75.8125H398.625V80.125H402.938V84.4375V88.75V93.0625V97.375V101.688H398.625V106H394.312ZM390 97.375V93.0625V88.75V84.4375V80.125H385.688V84.4375V88.75V93.0625V97.375H390ZM390 71.5V67.1875H385.688V71.5H390ZM437.438 106H433.125H428.812H424.5H420.188H415.875V101.688H411.562V97.375V93.0625V88.75V84.4375V80.125V75.8125V71.5V67.1875H415.875H420.188H424.5V71.5V75.8125V80.125V84.4375V88.75V93.0625V97.375H428.812V93.0625V88.75V84.4375V80.125V75.8125V71.5H433.125H437.438H441.75V75.8125V80.125V84.4375V88.75V93.0625V97.375V101.688V106H437.438ZM493.5 106H489.188H484.875V101.688V97.375V93.0625V88.75V84.4375V80.125V75.8125H480.562V80.125V84.4375V88.75V93.0625V97.375V101.688V106H476.25H471.938H467.625V101.688V97.375V93.0625V88.75V84.4375V80.125V75.8125H463.312V80.125V84.4375V88.75V93.0625V97.375V101.688V106H459H454.688H450.375V101.688V97.375V93.0625V88.75V84.4375V80.125V75.8125V71.5V67.1875H454.688H459H463.312H467.625H471.938H476.25H480.562H484.875H489.188H493.5V71.5H497.812V75.8125V80.125V84.4375V88.75V93.0625V97.375V101.688V106H493.5ZM528 106H523.688H519.375H515.062H510.75V101.688H506.438V97.375V93.0625V88.75V84.4375V80.125V75.8125V71.5H510.75V67.1875H515.062H519.375H523.688H528H532.312V71.5H536.625V75.8125V80.125V84.4375V88.75H532.312H528H523.688H519.375V93.0625V97.375H523.688V93.0625H528H532.312H536.625V97.375V101.688H532.312V106H528ZM523.688 80.125V75.8125H519.375V80.125H523.688ZM575.438 106H571.125H566.812V101.688V97.375V93.0625V88.75V84.4375V80.125V75.8125H562.5V80.125V84.4375V88.75V93.0625V97.375V101.688H558.188V106H553.875H549.562H545.25V101.688V97.375H549.562V93.0625V88.75V84.4375V80.125V75.8125V71.5V67.1875H553.875H558.188H562.5H566.812H571.125H575.438H579.75V71.5V75.8125V80.125V84.4375V88.75V93.0625V97.375V101.688V106H575.438ZM609.938 106H605.625H601.312H597H592.688V101.688H588.375V97.375V93.0625V88.75V84.4375V80.125V75.8125V71.5V67.1875H592.688H597H601.312V71.5V75.8125V80.125H605.625H609.938H614.25V84.4375H618.562V88.75V93.0625V97.375V101.688H614.25V106H609.938ZM605.625 97.375V93.0625V88.75H601.312V93.0625V97.375H605.625ZM653.062 106H648.75H644.438V101.688V97.375V93.0625V88.75H640.125V93.0625V97.375V101.688V106H635.812H631.5H627.188V101.688V97.375V93.0625V88.75V84.4375V80.125V75.8125V71.5V67.1875H631.5H635.812H640.125V71.5V75.8125V80.125H644.438V75.8125V71.5V67.1875H648.75H653.062H657.375V71.5V75.8125V80.125V84.4375V88.75V93.0625V97.375V101.688V106H653.062ZM687.562 106H683.25H678.938H674.625H670.312V101.688H666V97.375V93.0625V88.75V84.4375V80.125V75.8125V71.5H670.312V67.1875H674.625H678.938H683.25H687.562H691.875V71.5H696.188V75.8125V80.125V84.4375V88.75V93.0625V97.375V101.688H691.875V106H687.562ZM683.25 97.375V93.0625V88.75V84.4375V80.125V75.8125H678.938V80.125V84.4375V88.75V93.0625V97.375H683.25ZM752.25 106H747.938H743.625V101.688V97.375H739.312V101.688H735H730.688H726.375V97.375H730.688V93.0625H735V88.75H739.312V84.4375H735V80.125V75.8125H730.688V71.5H726.375V67.1875H730.688H735H739.312V71.5V75.8125H743.625V71.5H747.938H752.25H756.562V75.8125H752.25V80.125H747.938V84.4375H743.625V88.75H747.938V93.0625V97.375H752.25V101.688H756.562V106H752.25ZM786.75 106H782.438H778.125H773.812H769.5V101.688H765.188V97.375V93.0625V88.75V84.4375V80.125V75.8125V71.5H769.5V67.1875H773.812H778.125H782.438H786.75H791.062V71.5H795.375V75.8125V80.125V84.4375V88.75V93.0625V97.375V101.688H791.062V106H786.75ZM782.438 97.375V93.0625V88.75V84.4375V80.125V75.8125H778.125V80.125V84.4375V88.75V93.0625V97.375H782.438ZM847.125 106H842.812H838.5V101.688V97.375V93.0625V88.75V84.4375V80.125V75.8125H834.188V80.125V84.4375V88.75V93.0625V97.375V101.688V106H829.875H825.562H821.25V101.688V97.375V93.0625V88.75V84.4375V80.125V75.8125H816.938V80.125V84.4375V88.75V93.0625V97.375V101.688V106H812.625H808.312H804V101.688V97.375V93.0625V88.75V84.4375V80.125V75.8125V71.5V67.1875H808.312H812.625H816.938H821.25H825.562H829.875H834.188H838.5H842.812H847.125V71.5H851.438V75.8125V80.125V84.4375V88.75V93.0625V97.375V101.688V106H847.125ZM885.938 106H881.625H877.312H873H868.688H864.375V101.688H860.062V97.375V93.0625V88.75V84.4375V80.125V75.8125V71.5V67.1875H864.375H868.688H873V71.5V75.8125V80.125V84.4375V88.75V93.0625V97.375H877.312V93.0625V88.75V84.4375V80.125V75.8125V71.5H881.625H885.938H890.25V75.8125V80.125V84.4375V88.75V93.0625V97.375V101.688V106H885.938ZM942 106H937.688H933.375V101.688V97.375V93.0625V88.75V84.4375V80.125V75.8125H929.062V80.125V84.4375V88.75V93.0625V97.375V101.688V106H924.75H920.438H916.125V101.688V97.375V93.0625V88.75V84.4375V80.125V75.8125H911.812V80.125V84.4375V88.75V93.0625V97.375V101.688V106H907.5H903.188H898.875V101.688V97.375V93.0625V88.75V84.4375V80.125V75.8125V71.5V67.1875H903.188H907.5H911.812H916.125H920.438H924.75H929.062H933.375H937.688H942V71.5H946.312V75.8125V80.125V84.4375V88.75V93.0625V97.375V101.688V106H942ZM976.5 106H972.188H967.875H963.562H959.25V101.688H954.938V97.375V93.0625V88.75V84.4375V80.125V75.8125V71.5H959.25V67.1875H963.562H967.875H972.188H976.5H980.812V71.5H985.125V75.8125V80.125V84.4375V88.75H980.812H976.5H972.188H967.875V93.0625V97.375H972.188V93.0625H976.5H980.812H985.125V97.375V101.688H980.812V106H976.5ZM972.188 80.125V75.8125H967.875V80.125H972.188ZM1036.88 118.938H1032.56H1028.25H1023.94H1019.62V114.625V110.312H1023.94H1028.25H1032.56V106H1028.25H1023.94H1019.62V101.688H1015.31V97.375V93.0625V88.75V84.4375V80.125V75.8125V71.5V67.1875H1019.62H1023.94H1028.25V71.5V75.8125V80.125V84.4375V88.75V93.0625V97.375H1032.56V93.0625V88.75V84.4375V80.125V75.8125V71.5H1036.88H1041.19H1045.5V75.8125V80.125V84.4375V88.75V93.0625V97.375V101.688V106V110.312V114.625H1041.19V118.938H1036.88ZM1075.69 106H1071.38H1067.06H1062.75H1058.44V101.688H1054.12V97.375V93.0625V88.75V84.4375V80.125V75.8125V71.5V67.1875V62.875H1058.44V58.5625H1062.75H1067.06H1071.38H1075.69H1080V62.875H1084.31V67.1875V71.5V75.8125H1080V80.125H1084.31V84.4375V88.75V93.0625V97.375V101.688H1080V106H1075.69ZM1071.38 97.375V93.0625V88.75V84.4375V80.125H1067.06V84.4375V88.75V93.0625V97.375H1071.38ZM1071.38 71.5V67.1875H1067.06V71.5H1071.38ZM1114.5 106H1110.19H1105.88H1101.56H1097.25V101.688H1092.94V97.375V93.0625V88.75V84.4375V80.125V75.8125V71.5H1097.25V67.1875H1101.56H1105.88H1110.19H1114.5H1118.81V71.5H1123.12V75.8125V80.125V84.4375V88.75V93.0625V97.375V101.688H1118.81V106H1114.5ZM1110.19 97.375V93.0625V88.75V84.4375V80.125V75.8125H1105.88V80.125V84.4375V88.75V93.0625V97.375H1110.19ZM1161.94 106H1157.62H1153.31V101.688V97.375V93.0625V88.75V84.4375V80.125V75.8125H1149V80.125V84.4375V88.75V93.0625V97.375V101.688H1144.69V106H1140.38H1136.06H1131.75V101.688V97.375H1136.06V93.0625V88.75V84.4375V80.125V75.8125V71.5V67.1875H1140.38H1144.69H1149H1153.31H1157.62H1161.94H1166.25V71.5V75.8125V80.125V84.4375V88.75V93.0625V97.375V101.688V106H1161.94ZM1200.75 106H1196.44H1192.12H1187.81H1183.5H1179.19V101.688H1174.88V97.375V93.0625V88.75V84.4375V80.125V75.8125V71.5V67.1875H1179.19H1183.5H1187.81V71.5V75.8125V80.125V84.4375V88.75V93.0625V97.375H1192.12V93.0625V88.75V84.4375V80.125V75.8125V71.5H1196.44H1200.75H1205.06V75.8125V80.125V84.4375V88.75V93.0625V97.375V101.688V106H1200.75ZM1256.81 106H1252.5H1248.19V101.688V97.375V93.0625V88.75V84.4375V80.125V75.8125H1243.88V80.125V84.4375V88.75V93.0625V97.375V101.688V106H1239.56H1235.25H1230.94V101.688V97.375V93.0625V88.75V84.4375V80.125V75.8125H1226.62V80.125V84.4375V88.75V93.0625V97.375V101.688V106H1222.31H1218H1213.69V101.688V97.375V93.0625V88.75V84.4375V80.125V75.8125V71.5V67.1875H1218H1222.31H1226.62H1230.94H1235.25H1239.56H1243.88H1248.19H1252.5H1256.81V71.5H1261.12V75.8125V80.125V84.4375V88.75V93.0625V97.375V101.688V106H1256.81ZM1291.31 106H1287H1282.69H1278.38H1274.06V101.688H1269.75V97.375V93.0625V88.75V84.4375V80.125V75.8125V71.5V67.1875H1274.06H1278.38H1282.69V71.5V75.8125V80.125H1287H1291.31H1295.62V84.4375H1299.94V88.75V93.0625V97.375V101.688H1295.62V106H1291.31ZM1287 97.375V93.0625V88.75H1282.69V93.0625V97.375H1287ZM1330.12 106H1325.81H1321.5H1317.19H1312.88V101.688H1308.56V97.375V93.0625V88.75V84.4375V80.125V75.8125V71.5H1312.88V67.1875H1317.19H1321.5H1325.81H1330.12H1334.44V71.5H1338.75V75.8125V80.125H1334.44H1330.12H1325.81V75.8125H1321.5V80.125V84.4375V88.75V93.0625V97.375H1325.81V93.0625V88.75H1330.12H1334.44H1338.75V93.0625V97.375V101.688H1334.44V106H1330.12ZM1373.25 106H1368.94H1364.62V101.688V97.375V93.0625V88.75H1360.31V93.0625V97.375V101.688H1356H1351.69H1347.38V97.375V93.0625V88.75H1351.69V84.4375H1347.38V80.125V75.8125V71.5H1351.69V67.1875H1356H1360.31H1364.62H1368.94H1373.25H1377.56V71.5V75.8125V80.125V84.4375V88.75V93.0625V97.375V101.688V106H1373.25ZM1364.62 80.125V75.8125H1360.31V80.125H1364.62ZM1394.81 106H1390.5H1386.19V101.688V97.375H1390.5H1394.81H1399.12V101.688V106H1394.81ZM1407.75 93.0625H1403.44V88.75H1399.12V93.0625H1394.81H1390.5H1386.19V88.75V84.4375V80.125H1390.5H1394.81H1399.12V84.4375H1403.44V80.125V75.8125V71.5V67.1875H1399.12V71.5V75.8125H1394.81H1390.5H1386.19V71.5V67.1875V62.875H1390.5V58.5625H1394.81H1399.12H1403.44H1407.75H1412.06V62.875H1416.38V67.1875V71.5V75.8125V80.125V84.4375V88.75H1412.06V93.0625H1407.75Z" fill="#404040"/>
</svg>
