<svg width="1465" height="881" viewBox="0 0 1465 881" fill="none" xmlns="http://www.w3.org/2000/svg">
<rect x="21" y="21" width="1423" height="839" rx="29" fill="white" stroke="#02E5AC" stroke-width="42"/>
<rect x="25" y="30" width="1400" height="134" fill="#02E5AC"/>
<path d="M158.562 106H154.25H149.938H145.625H141.312V101.688H137V97.375V93.0625V88.75V84.4375V80.125V75.8125V71.5V67.1875V62.875H141.312V58.5625H145.625H149.938H154.25H158.562H162.875V62.875H167.188V67.1875V71.5H162.875H158.562H154.25V67.1875H149.938V71.5V75.8125V80.125V84.4375V88.75V93.0625V97.375H154.25V93.0625V88.75H158.562H162.875H167.188V93.0625V97.375V101.688H162.875V106H158.562ZM201.688 106H197.375H193.062V101.688V97.375V93.0625V88.75V84.4375V80.125V75.8125H188.75V80.125V84.4375V88.75V93.0625V97.375V101.688V106H184.438H180.125H175.812V101.688V97.375V93.0625V88.75V84.4375V80.125V75.8125V71.5V67.1875H180.125H184.438H188.75H193.062H197.375H201.688V71.5H206V75.8125V80.125V84.4375V88.75V93.0625V97.375V101.688V106H201.688ZM240.5 106H236.188H231.875H227.562H223.25H218.938V101.688H214.625V97.375V93.0625V88.75V84.4375V80.125V75.8125V71.5H218.938V67.1875H223.25H227.562H231.875H236.188H240.5H244.812V71.5V75.8125V80.125V84.4375V88.75V93.0625V97.375V101.688V106H240.5ZM231.875 97.375V93.0625V88.75V84.4375V80.125V75.8125H227.562V80.125V84.4375V88.75V93.0625V97.375H231.875ZM275 106H270.688H266.375H262.062H257.75V101.688H253.438V97.375V93.0625V88.75V84.4375V80.125V75.8125V71.5H257.75V67.1875H262.062H266.375H270.688H275H279.312V71.5H283.625V75.8125V80.125H279.312H275H270.688V75.8125H266.375V80.125V84.4375V88.75V93.0625V97.375H270.688V93.0625V88.75H275H279.312H283.625V93.0625V97.375V101.688H279.312V106H275ZM318.125 106H313.812H309.5H305.188H300.875H296.562V101.688H292.25V97.375V93.0625V88.75V84.4375V80.125V75.8125V71.5V67.1875H296.562H300.875H305.188V71.5V75.8125V80.125V84.4375V88.75V93.0625V97.375H309.5V93.0625V88.75V84.4375V80.125V75.8125V71.5H313.812H318.125H322.438V75.8125V80.125V84.4375V88.75V93.0625V97.375V101.688V106H318.125ZM352.625 106H348.312H344H339.688H335.375V101.688H331.062V97.375V93.0625V88.75V84.4375V80.125V75.8125V71.5V67.1875V62.875H335.375V58.5625H339.688H344H348.312V54.25H352.625H356.938H361.25V58.5625V62.875H356.938V67.1875H352.625H348.312H344V71.5H348.312H352.625H356.938V75.8125H361.25V80.125V84.4375V88.75V93.0625V97.375V101.688H356.938V106H352.625ZM348.312 97.375V93.0625V88.75V84.4375V80.125H344V84.4375V88.75V93.0625V97.375H348.312ZM391.438 106H387.125H382.812H378.5H374.188V101.688H369.875V97.375V93.0625V88.75V84.4375V80.125V75.8125V71.5H374.188V67.1875H378.5H382.812H387.125H391.438H395.75V71.5H400.062V75.8125V80.125V84.4375V88.75V93.0625V97.375V101.688H395.75V106H391.438ZM387.125 97.375V93.0625V88.75V84.4375V80.125V75.8125H382.812V80.125V84.4375V88.75V93.0625V97.375H387.125ZM408.688 114.625V110.312H413V114.625H408.688ZM413 110.312V106H408.688V101.688V97.375H413H417.312V101.688V106V110.312H413ZM469.062 106H464.75H460.438H456.125H451.812V101.688H447.5V97.375V93.0625V88.75V84.4375V80.125V75.8125V71.5V67.1875V62.875H451.812V58.5625H456.125H460.438H464.75H469.062H473.375V62.875H477.688V67.1875V71.5V75.8125H473.375V80.125H477.688V84.4375V88.75V93.0625V97.375V101.688H473.375V106H469.062ZM464.75 97.375V93.0625V88.75V84.4375V80.125H460.438V84.4375V88.75V93.0625V97.375H464.75ZM464.75 71.5V67.1875H460.438V71.5H464.75ZM507.875 106H503.562H499.25H494.938H490.625V101.688H486.312V97.375V93.0625V88.75V84.4375V80.125V75.8125V71.5H490.625V67.1875H494.938H499.25H503.562H507.875H512.188V71.5H516.5V75.8125V80.125V84.4375V88.75V93.0625V97.375V101.688H512.188V106H507.875ZM503.562 97.375V93.0625V88.75V84.4375V80.125V75.8125H499.25V80.125V84.4375V88.75V93.0625V97.375H503.562ZM546.688 118.938H542.375H538.062H533.75H529.438V114.625H525.125V110.312V106H529.438H533.75H538.062V110.312H542.375V106V101.688V97.375H538.062H533.75V93.0625V88.75H538.062H542.375V84.4375V80.125V75.8125H538.062V80.125H533.75H529.438H525.125V75.8125V71.5H529.438V67.1875H533.75H538.062H542.375H546.688H551V71.5H555.312V75.8125V80.125V84.4375V88.75V93.0625H551V97.375H555.312V101.688V106V110.312V114.625H551V118.938H546.688ZM585.5 106H581.188H576.875H572.562H568.25V101.688H563.938V97.375V93.0625V88.75V84.4375V80.125V75.8125V71.5V67.1875V62.875H568.25V58.5625H572.562H576.875H581.188H585.5H589.812V62.875H594.125V67.1875V71.5V75.8125H589.812V80.125H594.125V84.4375V88.75V93.0625V97.375V101.688H589.812V106H585.5ZM581.188 97.375V93.0625V88.75V84.4375V80.125H576.875V84.4375V88.75V93.0625V97.375H581.188ZM581.188 71.5V67.1875H576.875V71.5H581.188ZM611.375 118.938H607.062H602.75V114.625V110.312V106V101.688V97.375V93.0625V88.75V84.4375V80.125V75.8125V71.5V67.1875H607.062H611.375H615.688H620H624.312H628.625V71.5H632.938V75.8125V80.125V84.4375V88.75V93.0625V97.375V101.688H628.625V106H624.312H620H615.688V110.312V114.625V118.938H611.375ZM620 97.375V93.0625V88.75V84.4375V80.125V75.8125H615.688V80.125V84.4375V88.75V93.0625V97.375H620ZM667.438 106H663.125H658.812H654.5H650.188H645.875V101.688H641.562V97.375V93.0625V88.75V84.4375V80.125V75.8125V71.5H645.875V67.1875H650.188H654.5H658.812H663.125H667.438H671.75V71.5V75.8125V80.125V84.4375V88.75V93.0625V97.375V101.688V106H667.438ZM658.812 97.375V93.0625V88.75V84.4375V80.125V75.8125H654.5V80.125V84.4375V88.75V93.0625V97.375H658.812ZM732.125 110.312H727.812V106H723.5H719.188H714.875H710.562H706.25H701.938H697.625H693.312H689H684.688V101.688H680.375V97.375V93.0625V88.75V84.4375V80.125V75.8125V71.5V67.1875H684.688H689H693.312V71.5V75.8125V80.125V84.4375V88.75V93.0625V97.375H697.625V93.0625V88.75V84.4375V80.125V75.8125V71.5V67.1875H701.938H706.25H710.562V71.5V75.8125V80.125V84.4375V88.75V93.0625V97.375H714.875V93.0625V88.75V84.4375V80.125V75.8125V71.5H719.188H723.5H727.812V75.8125V80.125V84.4375V88.75V93.0625V97.375H732.125H736.438V101.688V106V110.312H732.125ZM770.938 106H766.625H762.312H758H753.688H749.375V101.688H745.062V97.375V93.0625V88.75V84.4375V80.125V75.8125V71.5H749.375V67.1875H753.688H758H762.312H766.625H770.938H775.25V71.5V75.8125V80.125V84.4375V88.75V93.0625V97.375V101.688V106H770.938ZM762.312 97.375V93.0625V88.75V84.4375V80.125V75.8125H758V80.125V84.4375V88.75V93.0625V97.375H762.312ZM809.75 106H805.438H801.125H796.812H792.5H788.188V101.688H783.875V97.375V93.0625V88.75V84.4375V80.125V75.8125V71.5H788.188H792.5H796.812V75.8125V80.125V84.4375V88.75V93.0625V97.375H801.125V93.0625V88.75V84.4375V80.125V75.8125V71.5H805.438H809.75H814.062V75.8125V80.125V84.4375V88.75V93.0625V97.375V101.688V106H809.75ZM801.125 67.1875H796.812H792.5V62.875H788.188V58.5625V54.25H792.5H796.812V58.5625H801.125V54.25H805.438H809.75V58.5625V62.875H805.438V67.1875H801.125ZM865.812 106H861.5H857.188V101.688V97.375V93.0625V88.75V84.4375V80.125V75.8125H852.875V80.125V84.4375V88.75V93.0625V97.375V101.688V106H848.562H844.25H839.938V101.688V97.375V93.0625V88.75V84.4375V80.125V75.8125H835.625V80.125V84.4375V88.75V93.0625V97.375V101.688V106H831.312H827H822.688V101.688V97.375V93.0625V88.75V84.4375V80.125V75.8125V71.5V67.1875H827H831.312H835.625H839.938H844.25H848.562H852.875H857.188H861.5H865.812V71.5H870.125V75.8125V80.125V84.4375V88.75V93.0625V97.375V101.688V106H865.812ZM900.312 106H896H891.688H887.375H883.062V101.688H878.75V97.375V93.0625V88.75V84.4375V80.125V75.8125V71.5H883.062V67.1875H887.375H891.688H896H900.312H904.625V71.5H908.938V75.8125V80.125V84.4375V88.75H904.625H900.312H896H891.688V93.0625V97.375H896V93.0625H900.312H904.625H908.938V97.375V101.688H904.625V106H900.312ZM896 80.125V75.8125H891.688V80.125H896ZM939.125 106H934.812H930.5H926.188H921.875V101.688H917.562V97.375V93.0625V88.75V84.4375V80.125V75.8125V71.5H921.875V67.1875H926.188H930.5H934.812H939.125H943.438V71.5H947.75V75.8125V80.125H943.438H939.125H934.812V75.8125H930.5V80.125V84.4375V88.75V93.0625V97.375H934.812V93.0625V88.75H939.125H943.438H947.75V93.0625V97.375V101.688H943.438V106H939.125ZM977.938 106H973.625H969.312H965H960.688V101.688H956.375V97.375V93.0625V88.75V84.4375V80.125V75.8125V71.5V67.1875H960.688H965H969.312V71.5V75.8125V80.125H973.625H977.938H982.25V84.4375H986.562V88.75V93.0625V97.375V101.688H982.25V106H977.938ZM973.625 97.375V93.0625V88.75H969.312V93.0625V97.375H973.625ZM1042.62 106H1038.31H1034V101.688V97.375V93.0625H1029.69V97.375V101.688H1025.38H1021.06H1016.75V97.375V93.0625V88.75V84.4375V80.125V75.8125V71.5V67.1875H1021.06H1025.38H1029.69V71.5V75.8125H1034V71.5V67.1875H1038.31H1042.62H1046.94V71.5V75.8125H1042.62V80.125V84.4375H1038.31V88.75H1042.62V93.0625V97.375H1046.94V101.688V106H1042.62ZM1085.75 118.938H1081.44H1077.12V114.625V110.312V106V101.688V97.375V93.0625V88.75V84.4375V80.125V75.8125V71.5V67.1875H1081.44H1085.75H1090.06H1094.38H1098.69H1103V71.5H1107.31V75.8125V80.125V84.4375V88.75V93.0625V97.375V101.688H1103V106H1098.69H1094.38H1090.06V110.312V114.625V118.938H1085.75ZM1094.38 97.375V93.0625V88.75V84.4375V80.125V75.8125H1090.06V80.125V84.4375V88.75V93.0625V97.375H1094.38ZM1141.81 106H1137.5H1133.19H1128.88H1124.56H1120.25V101.688H1115.94V97.375V93.0625V88.75V84.4375V80.125V75.8125V71.5H1120.25V67.1875H1124.56H1128.88H1133.19H1137.5H1141.81H1146.12V71.5V75.8125V80.125V84.4375V88.75V93.0625V97.375V101.688V106H1141.81ZM1133.19 97.375V93.0625V88.75V84.4375V80.125V75.8125H1128.88V80.125V84.4375V88.75V93.0625V97.375H1133.19ZM1176.31 106H1172H1167.69H1163.38H1159.06V101.688H1154.75V97.375V93.0625V88.75V84.4375V80.125V75.8125V71.5V67.1875V62.875H1159.06V58.5625H1163.38H1167.69H1172V54.25H1176.31H1180.62H1184.94V58.5625V62.875H1180.62V67.1875H1176.31H1172H1167.69V71.5H1172H1176.31H1180.62V75.8125H1184.94V80.125V84.4375V88.75V93.0625V97.375V101.688H1180.62V106H1176.31ZM1172 97.375V93.0625V88.75V84.4375V80.125H1167.69V84.4375V88.75V93.0625V97.375H1172ZM1215.12 106H1210.81H1206.5H1202.19H1197.88V101.688H1193.56V97.375V93.0625V88.75V84.4375V80.125V75.8125V71.5H1197.88V67.1875H1202.19H1206.5H1210.81H1215.12H1219.44V71.5H1223.75V75.8125V80.125V84.4375V88.75V93.0625V97.375V101.688H1219.44V106H1215.12ZM1210.81 97.375V93.0625V88.75V84.4375V80.125V75.8125H1206.5V80.125V84.4375V88.75V93.0625V97.375H1210.81ZM1275.5 106H1271.19H1266.88V101.688V97.375V93.0625V88.75V84.4375V80.125V75.8125H1262.56V80.125V84.4375V88.75V93.0625V97.375V101.688V106H1258.25H1253.94H1249.62V101.688V97.375V93.0625V88.75V84.4375V80.125V75.8125H1245.31V80.125V84.4375V88.75V93.0625V97.375V101.688V106H1241H1236.69H1232.38V101.688V97.375V93.0625V88.75V84.4375V80.125V75.8125V71.5V67.1875H1236.69H1241H1245.31H1249.62H1253.94H1258.25H1262.56H1266.88H1271.19H1275.5V71.5H1279.81V75.8125V80.125V84.4375V88.75V93.0625V97.375V101.688V106H1275.5ZM1310 106H1305.69H1301.38H1297.06H1292.75V101.688H1288.44V97.375V93.0625V88.75V84.4375V80.125V75.8125V71.5H1292.75V67.1875H1297.06H1301.38H1305.69H1310H1314.31V71.5H1318.62V75.8125V80.125V84.4375V88.75H1314.31H1310H1305.69H1301.38V93.0625V97.375H1305.69V93.0625H1310H1314.31H1318.62V97.375V101.688H1314.31V106H1310ZM1305.69 80.125V75.8125H1301.38V80.125H1305.69Z" fill="#404040"/>
</svg>
