<svg width="2826" height="2533" viewBox="0 0 2826 2533" fill="none" xmlns="http://www.w3.org/2000/svg">
<path d="M843.963 1480.45L704 1291.72L858.696 1177C894.809 1150.22 928.479 1134.66 959.707 1130.32C991.282 1125.72 1014.12 1132.93 1028.21 1151.93C1042.44 1171.11 1042.83 1195.23 1029.39 1224.29C1016.18 1252.91 991.51 1280.62 955.397 1307.4L891.852 1354.52L935.113 1412.86L843.963 1480.45ZM862.489 1314.93L907.283 1281.71C922.562 1270.38 932.433 1259.38 936.896 1248.7C941.706 1237.77 941.24 1228.43 935.498 1220.69C929.756 1212.95 921.195 1209.75 909.815 1211.1C898.436 1212.45 885.454 1218.53 870.87 1229.34L824.513 1263.72L862.489 1314.93Z" fill="#F54E2F"/>
<path d="M1086.19 1482.66L947.874 1052.88L1044.36 974.19L1437.53 1196.14L1343.14 1273.12L1264.32 1223.57L1147.38 1318.93L1180.58 1405.69L1086.19 1482.66ZM1116.84 1237.59L1190.78 1177.3L1118.15 1131.05L1057.22 1087.39L1056.18 1088.25C1069.91 1116.51 1080.08 1139.33 1086.68 1156.71L1116.84 1237.59Z" fill="#F54E2F"/>
<path d="M2566.84 1258.78L2537.59 769.321L2414.6 732.124L2119 1123.33L2239.32 1159.72L2296.67 1076.24L2445.72 1121.32L2446.53 1222.39L2566.84 1258.78ZM2444.39 1026.81L2350.15 998.307L2402.77 920.79L2445.07 850.904L2446.4 851.308C2443.85 885.488 2442.67 912.692 2442.88 932.92L2444.39 1026.81Z" fill="#F54E2F"/>
<path d="M1359.51 1315.4L1084.55 951.631L1396.71 715.679L1454.39 791.993L1259.71 939.146L1302.4 995.619L1384.3 933.713C1430.84 898.532 1476.64 880.97 1521.69 881.027C1567.19 880.746 1602.75 897.564 1628.39 931.481C1654.03 965.399 1660.38 1004.04 1647.44 1047.39C1634.95 1090.41 1605.43 1129.51 1558.89 1164.69L1359.51 1315.4ZM1419.3 1150.28L1479.05 1105.12C1497.84 1090.91 1509.83 1076.53 1514.99 1061.96C1519.9 1047.06 1517.87 1033.67 1508.9 1021.8C1499.92 1009.93 1487.38 1004.49 1471.25 1005.49C1455.32 1005.81 1437.5 1013.41 1417.81 1028.29L1360.08 1071.93L1419.3 1150.28Z" fill="#F54E2F"/>
<path d="M1539 967.595C1539 900.897 1560.3 844.957 1602.91 799.774C1645.92 754.591 1699.78 732 1764.5 732C1829.22 732 1882.88 754.591 1925.49 799.774C1968.5 844.957 1990 900.897 1990 967.595C1990 1036.01 1968.5 1093.46 1925.49 1139.94C1882.88 1185.98 1829.22 1209 1764.5 1209C1699.78 1209 1645.92 1185.98 1602.91 1139.94C1560.3 1093.46 1539 1036.01 1539 967.595ZM1648.13 967.595C1648.13 1006.75 1659.39 1039.67 1681.9 1066.35C1704.41 1092.6 1731.94 1105.73 1764.5 1105.73C1797.06 1105.73 1824.59 1092.6 1847.1 1066.35C1869.61 1039.67 1880.87 1006.75 1880.87 967.595C1880.87 930.158 1869.61 898.746 1847.1 873.357C1824.59 847.969 1797.06 835.275 1764.5 835.275C1731.94 835.275 1704.41 847.969 1681.9 873.357C1659.39 898.746 1648.13 930.158 1648.13 967.595Z" fill="#F54E2F"/>
<path d="M2009.93 1172.04L2042.36 825.81L1874.25 810.975L1881.22 732L2374.47 779.525L2367.5 858.5L2177.93 837.774L2145.5 1184L2009.93 1172.04Z" fill="#F54E2F"/>
<rect x="1186.14" width="668.493" height="1592.54" transform="rotate(48.1425 1186.14 0)" fill="#404040"/>
<path d="M675 2134V1601H702.104V1806.75H713.256L736.178 1601H765.296L735.404 1855.95V1857.44L767 2134H736.643L713.256 1917.82H702.104V2134H675Z" fill="#F54E2F"/>
<path d="M756 1868.3C756 1794.89 759.921 1733.32 767.762 1683.59C775.677 1633.86 785.59 1609 797.5 1609C809.41 1609 819.286 1633.86 827.127 1683.59C835.042 1733.32 839 1794.89 839 1868.3C839 1943.61 835.042 2006.83 827.127 2057.99C819.286 2108.66 809.41 2134 797.5 2134C785.59 2134 775.677 2108.66 767.762 2057.99C759.921 2006.83 756 1943.61 756 1868.3ZM776.084 1868.3C776.084 1911.4 778.156 1947.63 782.298 1977C786.441 2005.89 791.508 2020.33 797.5 2020.33C803.492 2020.33 808.559 2005.89 812.702 1977C816.844 1947.63 818.916 1911.4 818.916 1868.3C818.916 1827.1 816.844 1792.53 812.702 1764.58C808.559 1736.64 803.492 1722.67 797.5 1722.67C791.508 1722.67 786.441 1736.64 782.298 1764.58C778.156 1792.53 776.084 1827.1 776.084 1868.3Z" fill="#F54E2F"/>
<path d="M845 2167V1637H921V1748.19H875.365V2167H845Z" fill="#F54E2F"/>
<path d="M932.199 2006.39H973.428V1700.35H946.75V1724.63C946.75 1773.18 945.569 1822.96 943.206 1873.97C940.967 1924.98 937.298 1969.12 932.199 2006.39ZM885 2006.39H898.805C910.123 1928.9 915.782 1831.55 915.782 1714.33V1590H1006.08V2006.39H1021V2219H992.084V2116.01H915.036V2219H885V2006.39Z" fill="#F54E2F"/>
<path d="M2076.22 2138.42H2125.33V1662.58H2093.56V1700.33C2093.56 1775.82 2092.15 1853.22 2089.33 1932.53C2086.67 2011.84 2082.3 2080.47 2076.22 2138.42ZM2020 2138.42H2036.44C2049.93 2017.94 2056.67 1866.57 2056.67 1684.31V1491H2164.22V2138.42H2182V2469H2147.56V2308.86H2055.78V2469H2020V2138.42Z" fill="#F54E2F"/>
<path d="M999 2224L1049.41 1637H1087.59L1138 2224H1100.66L1091.53 2100.85H1045.26L1036.34 2224H999ZM1053.77 1985.92H1083.02L1074.72 1871.8L1068.71 1770.82H1068.29C1066.08 1813.51 1064.07 1847.17 1062.28 1871.8L1053.77 1985.92Z" fill="#F54E2F"/>
<path d="M1196.96 2236.87L1212.34 2120.1C1218.15 2141.5 1223.48 2152.19 1228.34 2152.19C1234.01 2152.19 1237.85 2141.2 1239.88 2119.21L1184 1637H1222.87L1246.96 1866.07L1254.86 1951.64H1255.26C1256.75 1924.9 1258.64 1896.68 1260.93 1866.96L1278.75 1637H1316L1273.28 2114.76C1271.26 2137.34 1269.17 2157.24 1267.01 2174.47C1264.98 2191.11 1262.21 2208.64 1258.71 2227.06C1255.33 2245.48 1251.21 2259.75 1246.36 2269.85C1241.5 2279.95 1236.03 2285 1229.96 2285C1218.35 2285 1207.35 2268.96 1196.96 2236.87Z" fill="#F54E2F"/>
<path d="M1256 2328L1290.06 1975.16V1973.26L1258.66 1648H1292.01L1315.42 1910.49H1327.48V1648H1358.52V1910.49H1370.58L1393.99 1648H1427.34L1395.94 1973.26V1975.16L1430 2328H1395.24L1370.58 2052.2H1358.52V2328H1327.48V2052.2H1315.42L1290.76 2328H1256Z" fill="#F54E2F"/>
<path d="M1424 2370V1657H1488.97V1806.58H1449.38V1936.22H1480.99V2085.8H1449.38V2220.42H1491V2370H1424Z" fill="#F54E2F"/>
<path d="M2503 2533V1485H2624.21V1704.86H2550.35V1895.41H2609.33V2115.27H2550.35V2313.14H2628V2533H2503Z" fill="#F54E2F"/>
<path d="M1602 2501V1634H1658.53C1674.3 1634 1686.91 1653.81 1696.36 1693.42C1705.97 1732.22 1710.77 1788 1710.77 1860.75C1710.77 1897.94 1709.19 1933.51 1706.04 1967.46C1702.88 2000.61 1698.51 2026.47 1692.93 2045.07V2047.49C1701.09 2061.23 1707.11 2086.7 1710.98 2123.89C1714.99 2160.26 1717 2199.87 1717 2242.72C1717 2330.83 1711.48 2395.91 1700.45 2437.95C1689.41 2479.98 1675.44 2501 1658.53 2501H1602ZM1639.62 1969.89H1658.96C1663.4 1969.89 1666.77 1962.21 1669.07 1946.85C1671.36 1931.49 1672.5 1912.49 1672.5 1889.86C1672.5 1868.03 1671.29 1850.24 1668.85 1836.5C1666.56 1822.76 1663.05 1815.89 1658.32 1815.89H1639.62V1969.89ZM1639.62 2319.11H1662.19C1667.35 2319.11 1671.36 2310.62 1674.22 2293.65C1677.09 2275.86 1678.52 2254.04 1678.52 2228.17C1678.52 2202.3 1677.16 2181.28 1674.44 2165.11C1671.72 2148.14 1667.7 2139.65 1662.4 2139.65H1639.62V2319.11Z" fill="#F54E2F"/>
<path d="M1845.26 2453V1475H1878V2453H1845.26ZM1733 2453V1475H1765.74V1777.29H1786.7C1799.67 1777.29 1810.15 1809.21 1818.13 1873.04C1826.24 1935.96 1830.29 2017.12 1830.29 2116.51C1830.29 2215 1826.24 2295.7 1818.13 2358.62C1810.15 2421.54 1799.67 2453 1786.7 2453H1733ZM1765.74 2247.83H1780.52C1785.76 2247.83 1789.82 2235.97 1792.68 2212.26C1795.55 2188.55 1796.99 2156.64 1796.99 2116.51C1796.99 2076.39 1795.49 2044.02 1792.5 2019.4C1789.63 1994.78 1785.45 1982.47 1779.96 1982.47H1765.74V2247.83Z" fill="#F54E2F"/>
<path d="M2446.87 2501V1491H2483V2501H2446.87ZM2323 2501V1491H2359.13V1803.18H2382.25C2396.57 1803.18 2408.13 1836.14 2416.94 1902.06C2425.88 1967.04 2430.35 2050.86 2430.35 2153.5C2430.35 2255.21 2425.88 2338.55 2416.94 2403.53C2408.13 2468.51 2396.57 2501 2382.25 2501H2323ZM2359.13 2289.11H2375.44C2381.22 2289.11 2385.69 2276.87 2388.86 2252.38C2392.02 2227.9 2393.61 2194.94 2393.61 2153.5C2393.61 2112.07 2391.95 2078.64 2388.65 2053.21C2385.49 2027.78 2380.88 2015.07 2374.82 2015.07H2359.13V2289.11Z" fill="#F54E2F"/>
<path d="M1895.19 2453L1936.57 2120.84L1895 1784H1932.95L1947.82 1921.54L1956.21 2007.62H1956.6C1959.01 1978.93 1961.81 1950.24 1964.99 1921.54L1980.05 1784H2018L1976.24 2120.84L2017.81 2453H1980.62L1964.99 2312.65L1956.6 2229.38H1956.21C1953.8 2256.82 1951 2284.58 1947.82 2312.65L1932.19 2453H1895.19Z" fill="#F54E2F"/>
<path d="M2176 2444V1485H2210.43V1868.6H2261.57V1485H2296V2444H2261.57V2068.45H2210.43V2444H2176Z" fill="#F54E2F"/>
<path d="M460.883 1509.47L2725.34 1015.34L2825.93 1476.31L530 1657L460.883 1509.47Z" fill="#404040"/>
</svg>
